<?xml version="1.0" encoding="UTF-8" standalone="no"?>
<!-- Created with Inkscape (http://www.inkscape.org/) -->

<svg
   xmlns:dc="http://purl.org/dc/elements/1.1/"
   xmlns:cc="http://creativecommons.org/ns#"
   xmlns:rdf="http://www.w3.org/1999/02/22-rdf-syntax-ns#"
   xmlns:svg="http://www.w3.org/2000/svg"
   xmlns="http://www.w3.org/2000/svg"
   xmlns:sodipodi="http://sodipodi.sourceforge.net/DTD/sodipodi-0.dtd"
   xmlns:inkscape="http://www.inkscape.org/namespaces/inkscape"
   width="100mm"
   height="34mm"
   viewBox="0 0 100 34"
   version="1.1"
   id="svg8"
   inkscape:version="0.92.5 (2060ec1f9f, 2020-04-08)"
   sodipodi:docname="esalogo_white.svg">
  <defs
     id="defs2" />
  <sodipodi:namedview
     id="base"
     pagecolor="#17a0c5"
     bordercolor="#666666"
     borderopacity="1.0"
     inkscape:pageopacity="1"
     inkscape:pageshadow="2"
     inkscape:zoom="0.35"
     inkscape:cx="371.74759"
     inkscape:cy="-105.31163"
     inkscape:document-units="mm"
     inkscape:current-layer="layer1"
     showgrid="false"
     fit-margin-top="0"
     fit-margin-left="0"
     fit-margin-right="0"
     fit-margin-bottom="0"
     inkscape:window-width="927"
     inkscape:window-height="1016"
     inkscape:window-x="67"
     inkscape:window-y="0"
     inkscape:window-maximized="0" />
  <metadata
     id="metadata5">
    <rdf:RDF>
      <cc:Work
         rdf:about="">
        <dc:format>image/svg+xml</dc:format>
        <dc:type
           rdf:resource="http://purl.org/dc/dcmitype/StillImage" />
        <dc:title></dc:title>
      </cc:Work>
    </rdf:RDF>
  </metadata>
  <g
     inkscape:label="Layer 1"
     inkscape:groupmode="layer"
     id="layer1"
     transform="translate(5.7540504,-86.969633)">
    <path
       style="fill:#ffffff;fill-opacity:1;stroke-width:0.28623587"
       d="m 10.900571,119.68272 c -3.1479862,-1.69005 -4.8366362,-2.93034 -7.5647021,-5.55617 -3.55806376,-3.42471 -5.9149191,-6.86567 -5.9149191,-8.63565 0,-0.83709 0.1544108,-0.67223 1.64586707,1.75736 1.91971071,3.12722 6.35955143,7.8201 9.23110093,9.75722 1.023276,0.6903 3.0841952,1.86349 4.5797802,2.60708 2.651681,1.31842 2.690787,1.35212 1.574298,1.35704 -0.817801,0.004 -1.832558,-0.36406 -3.551425,-1.28688 z m -3.2235772,0.048 c -3.4994323,-1.43935 -7.43878719,-5.23612 -8.7054534,-8.39035 l -0.4377002,-1.08998 0.79266517,1.00182 c 1.76977143,2.23681 4.66354583,5.04383 6.82463613,6.62006 3.4341853,2.50478 3.4456423,2.51354 3.2917073,2.51994 -0.07871,0.003 -0.873336,-0.2944 -1.765855,-0.66148 z m 8.4887612,0.12817 c -7.4954632,-2.66967 -14.1049132,-8.51278 -17.6680304,-15.61947 -0.7516019,-1.49907 -0.9685602,-2.24403 -0.8615098,-2.95822 0.1359164,-0.90676 0.219366,-0.79926 1.66626647,2.14677 1.80649553,3.67822 3.59841263,6.11646 6.56875753,8.93797 3.46755,3.29385 7.3223722,5.56739 11.7352782,6.9214 1.35726,0.41645 2.013268,0.74234 1.785435,0.88699 -0.555228,0.35247 -1.651979,0.24524 -3.226197,-0.31544 z m 2.865993,-1.28342 C 13.430466,116.98866 9.2548098,114.50991 5.4120015,110.4905 2.4666331,107.40974 0.65833838,104.60902 -0.88555813,100.73676 -1.5854604,98.981308 -1.6606286,98.553688 -1.3782652,97.933981 c 0.3186642,-0.6994 0.3684058,-0.634709 1.14069804,1.483545 3.54287666,9.717724 11.45529416,16.666184 21.30721516,18.711434 1.515005,0.31452 1.61081,0.3782 1.11469,0.74097 -0.646853,0.473 -0.343509,0.50133 -3.15259,-0.29446 z m 2.146776,-1.58353 c -5.609695,-1.19242 -10.489355,-3.9157 -14.4570732,-8.06831 -1.9423062,-2.03282 -2.1966502,-2.40733 -1.684602,-2.48044 0.4326202,-0.0617 1.1608858,0.49348 2.576116,1.96403 4.3499362,4.51993 9.8346432,7.26369 16.2789142,8.14361 1.311487,0.17907 1.38139,0.22672 0.87556,0.59658 -0.66175,0.48387 -0.560467,0.48827 -3.588915,-0.15547 z m 4.508209,-1.63578 c 0.196798,-0.0794 0.518822,-0.0794 0.715593,0 0.196797,0.0794 0.0358,0.14438 -0.357797,0.14438 -0.393567,0 -0.554566,-0.065 -0.357796,-0.14438 z m -9.09611,-1.90328 c -3.007757,-1.31334 -5.20216,-2.82398 -7.8398182,-5.39705 -1.7815452,-1.73795 -2.1977613,-2.29349 -1.9457721,-2.59713 0.2568575,-0.30948 0.8210811,0.0999 2.8388201,2.06002 1.3850412,1.34544 3.4264612,2.98403 4.5365222,3.6413 2.843609,1.68373 5.1748,3.24139 4.844864,3.23729 -0.153855,-0.003 -1.249415,-0.42691 -2.434616,-0.94443 z m 25.48128,0.39423 c -6.962114,-2.11778 -9.110742,-11.50276 -3.84011,-16.77337 1.138529,-1.138529 1.9254,-1.653196 3.028289,-1.980724 5.719921,-1.698625 10.546503,1.627241 11.749564,8.096354 0.51607,2.77506 0.799147,2.64808 -5.705449,2.55887 l -5.659808,-0.0776 v -1.5743 -1.5743 l 3.363278,-0.0807 c 3.66604,-0.0879 3.7778,-0.1529 2.961111,-1.72254 -0.764329,-1.46902 -1.774349,-2.147914 -3.388255,-2.277454 -3.002015,-0.24093 -4.651348,1.827294 -4.632007,5.808394 0.01826,3.77338 1.548738,5.84714 4.474818,6.06357 1.805464,0.13353 3.088297,-0.52518 3.695859,-1.89778 0.388594,-0.87789 0.40775,-0.88442 2.59461,-0.88442 1.211713,0 2.271554,0.1107 2.355162,0.24601 0.299588,0.48474 -1.335431,3.20373 -2.591144,4.30908 -0.703977,0.61965 -1.875366,1.3295 -2.603103,1.57747 -1.367578,0.46599 -4.543848,0.56639 -5.802815,0.18341 z m 17.917557,-0.18288 c -0.615447,-0.22548 -1.563132,-0.74877 -2.106004,-1.16282 -1.033145,-0.78804 -2.34905,-3.2139 -2.353839,-4.33933 -0.0026,-0.62896 0.07988,-0.65349 1.928177,-0.57248 1.896163,0.0831 1.939475,0.10272 2.402073,1.08649 0.826982,1.75868 1.493758,2.14675 3.688556,2.14675 1.670394,0 2.056633,-0.0997 2.689199,-0.69392 0.968428,-0.9098 1.015471,-2.40385 0.09462,-3.00506 -0.354224,-0.23127 -1.932094,-0.69797 -3.506391,-1.03714 -4.534932,-0.97703 -5.540375,-1.53062 -6.474433,-3.56471 -2.269094,-4.941355 3.428867,-9.297587 9.718225,-7.429841 2.444247,0.725858 4.601713,3.16492 4.621398,5.224591 0.0061,0.62929 -0.07549,0.65352 -1.925797,0.57246 -1.734185,-0.076 -1.941168,-0.14836 -2.020676,-0.70665 -0.12954,-0.909587 -1.404778,-2.056106 -2.519627,-2.265232 -2.235173,-0.419338 -4.118319,0.57068 -4.118319,2.165062 0,1.17017 0.872146,1.67338 3.772403,2.17656 4.462198,0.7742 5.897404,1.46339 6.822149,3.27602 1.593691,3.12391 -0.242279,7.21609 -3.702658,8.25286 -1.49651,0.44836 -5.64777,0.37515 -7.009051,-0.12361 z m 17.861915,0.19989 c -2.708989,-0.88826 -4.058999,-2.45113 -4.236456,-4.90442 -0.25019,-3.45898 2.148126,-5.62994 6.814424,-6.1685 3.71049,-0.42823 4.866031,-1.04153 4.866031,-2.58268 0,-1.717777 -2.285577,-2.769946 -4.468707,-2.057158 -0.874474,0.285512 -1.235551,0.621744 -1.685369,1.569482 l -0.572479,1.206126 -1.932093,0.0103 -1.932094,0.0103 v -0.86791 c 0,-2.131616 1.799167,-4.317656 4.121018,-5.007187 1.86899,-0.555017 5.762281,-0.545306 7.359941,0.01826 0.686647,0.242279 1.620335,0.789702 2.074889,1.216528 1.556041,1.461082 1.696244,2.181278 1.878542,9.649319 0.09223,3.77831 0.271383,7.03067 0.398145,7.22747 0.177562,0.27567 -0.297709,0.35779 -2.070868,0.35779 -2.204508,0 -2.308727,-0.0296 -2.477611,-0.70241 l -0.176292,-0.70239 -1.577895,0.89051 c -1.277567,0.72101 -1.966913,0.90776 -3.621776,0.98105 -1.124161,0.0498 -2.366751,-0.0154 -2.76135,-0.14473 z m 5.521087,-3.57423 c 1.629198,-0.68958 2.045361,-1.42507 2.166779,-3.82937 0.102235,-2.02451 0.07466,-2.15016 -0.42508,-1.93709 -0.293899,0.12528 -1.242827,0.40489 -2.108676,0.62132 -3.541924,0.88529 -3.740177,0.97282 -4.306173,1.90106 -0.760439,1.24716 -0.70411,1.81628 0.276833,2.79722 0.682731,0.68273 1.079474,0.8367 2.155984,0.8367 0.725593,0 1.733735,-0.17542 2.240333,-0.38984 z m -61.337084,0.40862 c -0.759831,-0.23111 -2.574264,-1.12075 -2.574264,-1.26214 0,-0.0461 0.998247,0.1488 2.21832,0.43302 1.220099,0.28421 2.797968,0.63174 3.50639,0.77229 l 1.288071,0.25553 -1.860523,0.01 c -1.023303,0.005 -2.183395,-0.0884 -2.577994,-0.20846 z m -9.166412,-1.65446 c -4.2603482,-3.20337 -7.5786464,-7.98246 -8.8414498,-12.733606 -0.82931,-3.120099 -0.9906,-4.475691 -0.5900209,-4.958397 0.5181865,-0.624364 0.8531226,-0.234342 0.8531226,0.993457 0,0.602827 0.3235854,2.212684 0.7190846,3.577511 1.256321,4.335225 3.1631733,7.478395 6.3751625,10.508405 2.670388,2.5191 3.647574,4.23936 1.484101,2.61263 z m 9.514233,-0.23204 c -2.353707,-0.5111 -4.925748,-1.69477 -4.925748,-2.26687 0,-0.56359 -0.06424,-0.57285 1.754399,0.25249 2.263061,1.027 5.980959,1.69865 8.318288,1.5027 1.942545,-0.16285 2.463377,0.0804 1.395572,0.65191 -0.764038,0.40891 -4.369462,0.33162 -6.542511,-0.14023 z m 2.230173,-1.86124 c -1.495584,-0.11597 -3.170079,-0.40465 -3.721074,-0.64151 -0.93554,-0.40214 -0.6468,-0.42804 4.364064,-0.39153 4.730803,0.0345 5.366015,0.0938 5.366914,0.50112 0,0.33287 -0.370152,0.51287 -1.326964,0.64402 -0.730409,0.10012 -1.471057,0.1633 -1.645868,0.14039 -0.17481,-0.023 -1.541515,-0.13652 -3.037072,-0.25249 z M 11.131394,104.74035 C 9.3649298,102.88639 8.5508598,101.72371 7.372511,99.371959 6.1637885,96.959593 5.3670223,93.965304 5.3240804,91.673721 5.2839964,89.535094 5.8917175,89.125678 6.135531,91.127012 c 0.5816336,4.773957 2.4140058,9.248038 4.959932,12.110618 1.269366,1.42721 2.036473,2.86234 1.529981,2.86234 -0.109247,0 -0.781579,-0.61182 -1.49405,-1.35962 z m 6.970106,0.41844 c -0.586211,-0.26508 -0.937525,-1.36115 -0.429366,-1.33961 0.479716,0.0204 1.260448,0.83346 1.170093,1.21862 -0.07477,0.31879 -0.242676,0.34621 -0.740727,0.12099 z M 1.9199246,102.19903 C 1.5359349,101.43211 0.86696238,99.729146 0.43331031,98.414723 -0.25164296,96.338484 -0.30736426,95.925231 0.00868054,95.266128 l 0.36382857,-0.758693 0.26275767,1.001818 c 0.2286264,0.871643 1.41126092,4.243044 2.33306942,6.650987 0.2155295,0.56298 0.2084387,0.8745 -0.025136,1.10818 -0.2425435,0.24255 -0.5021792,-0.0288 -1.0231967,-1.06939 z m 9.3049204,-0.42786 C 8.8885468,98.697641 7.5767958,95.280918 7.2559092,91.433268 7.1060227,89.636218 7.1505785,89.102923 7.4672848,88.902396 c 0.699082,-0.442595 0.767397,-0.304377 0.796131,1.610889 0.05292,3.52843 1.147604,6.913589 3.2152432,9.942675 0.676514,0.99107 1.110563,1.93545 1.058282,2.30251 -0.07514,0.52765 -0.274638,0.37753 -1.312096,-0.9873 z m 6.988653,1.10408 c -0.292629,-0.21508 -0.485855,-0.61441 -0.429366,-0.88741 0.08924,-0.4314 0.172297,-0.44516 0.634735,-0.10528 0.292603,0.21508 0.485828,0.61442 0.42934,0.88742 -0.08924,0.4314 -0.172297,0.44516 -0.634709,0.10527 z m 2.10476,-1.15025 c -1.213882,-0.64193 -1.990751,-1.45647 -1.682776,-1.764449 0.129037,-0.129064 4.423225,1.926719 4.809093,2.302269 0.06559,0.0638 -0.332767,0.1161 -0.885269,0.1161 -0.552477,0 -1.560963,-0.29427 -2.241048,-0.65392 z M 3.7057828,101.15644 c -0.6751902,-1.09657 -1.9513815,-4.989777 -2.1782882,-6.645275 -0.1161785,-0.847592 -0.04101,-1.270052 0.2722298,-1.530006 0.3715545,-0.308371 0.4595548,-0.18542 0.622591,0.869818 0.2380193,1.540589 1.4908478,5.469282 2.1858554,6.854583 0.4552157,0.90731 0.4678892,1.06773 0.095753,1.21055 -0.2784475,0.10684 -0.6287294,-0.15975 -0.998141,-0.75967 z M 23.00243,100.70797 c -1.659229,-0.57348 -2.968837,-1.354479 -2.968837,-1.770484 0,-0.429577 0.942816,-0.331999 1.662456,0.172059 0.354701,0.248444 1.307545,0.667067 2.117461,0.930275 1.463992,0.47577 2.188924,1.20274 1.181497,1.1848 -0.288634,-0.005 -1.185281,-0.23765 -1.992577,-0.51665 z M 12.081487,99.464272 c -1.85473,-2.695734 -3.0879802,-6.994473 -2.8711012,-10.00768 0.065564,-0.911093 0.222647,-1.266693 0.590259,-1.336437 0.4420132,-0.08385 0.5017302,0.168301 0.5079212,2.144289 0.0037,1.231636 0.135202,2.795191 0.291888,3.474588 0.300038,1.300956 1.602212,4.236747 2.464886,5.557203 0.374043,0.572532 0.425636,0.866455 0.192935,1.099155 -0.232675,0.2327 -0.547397,-0.0164 -1.176788,-0.931118 z m 17.684116,0.910988 c 0,-0.15743 0.128799,-0.28623 0.286226,-0.28623 0.157454,0 0.286253,0.1288 0.286253,0.28623 0,0.15743 -0.128799,0.28622 -0.286253,0.28622 -0.157427,0 -0.286226,-0.12879 -0.286226,-0.28622 z m -0.667888,-1.622003 c -0.329353,-0.329353 -0.208438,-0.667888 0.238549,-0.667888 0.23614,0 0.429339,0.193199 0.429339,0.429366 0,0.446961 -0.338534,0.567875 -0.667888,0.238522 z M 13.202448,97.520272 c -1.10453,-1.965299 -1.783981,-4.368033 -1.955961,-6.916949 -0.156633,-2.321375 -0.129301,-2.49301 0.44593,-2.800853 0.603515,-0.323004 0.612802,-0.291703 0.612802,2.063168 0,2.55389 0.488315,4.642935 1.597105,6.832626 0.542872,1.072039 0.602165,1.392212 0.303689,1.639915 -0.283925,0.235664 -0.519166,0.04395 -1.003565,-0.817907 z m 14.30229,-0.687996 c -0.258736,-0.311759 -0.19214,-0.429737 0.317818,-0.563113 0.809969,-0.211799 1.403535,0.294534 0.795708,0.678788 -0.574199,0.363035 -0.729615,0.346896 -1.113526,-0.115675 z M 14.473533,95.437683 c -1.450844,-3.290649 -1.800332,-7.943029 -0.596688,-7.943029 0.263445,0 0.398065,0.77888 0.482335,2.790798 0.09493,2.266897 0.262017,3.105468 0.890085,4.467066 0.425265,0.921967 0.702045,1.791388 0.615103,1.932094 -0.345122,0.558403 -0.758137,0.188145 -1.390835,-1.246929 z m 1.814751,-0.918395 c -1.148874,-2.597203 -1.414675,-7.024634 -0.42172,-7.024634 0.275828,0 0.413967,0.714031 0.512234,2.647659 0.09271,1.823984 0.319749,3.063531 0.729747,3.98436 0.509561,1.144482 0.533797,1.360223 0.168645,1.500346 -0.299667,0.114988 -0.593778,-0.214471 -0.988906,-1.107731 z m 8.128053,0.14687 c -1.687778,-0.766259 -2.95156,-2.583471 -2.95156,-4.244022 0,-1.105482 0.05858,-1.231556 0.42934,-0.923846 0.23614,0.195977 0.429365,0.612855 0.429365,0.926359 0,1.823985 2.431098,3.939646 4.527021,3.939646 0.619363,0 0.911463,0.13761 0.911463,0.429366 0,0.617749 -1.860285,0.546867 -3.345629,-0.127503 z M 18.21072,93.893019 c -1.05881,-2.22033 -1.239547,-5.825913 -0.292047,-5.825913 0.294931,0 0.39751,0.442383 0.39751,1.714341 0,1.01055 0.230663,2.321428 0.561869,3.193098 0.529934,1.394724 0.543454,1.962229 0.0467,1.962229 -0.118957,0 -0.440293,-0.469688 -0.714032,-1.043755 z m 1.940851,-0.602112 c -0.285856,-0.590338 -0.57277,-1.94437 -0.637593,-3.008947 -0.102976,-1.691376 -0.05958,-1.913229 0.343985,-1.758342 0.328691,0.126127 0.461856,0.542396 0.461856,1.443858 0,1.352523 0.586634,3.049296 1.343343,3.885433 0.432832,0.478287 0.415713,0.511386 -0.264531,0.511386 -0.557265,0 -0.848889,-0.250984 -1.24706,-1.073388 z m 5.061849,-0.433573 c -0.799729,-0.410977 -1.933151,-1.835123 -1.66997,-2.098304 0.209047,-0.209047 2.787332,1.833906 2.787332,2.208583 0,0.340254 -0.297947,0.310832 -1.117362,-0.110279 z"
       id="path9231"
       inkscape:connector-curvature="0" />
  </g>
</svg>
