<?xml version="1.0" encoding="UTF-8" standalone="no"?>
<svg
   xmlns:dc="http://purl.org/dc/elements/1.1/"
   xmlns:cc="http://creativecommons.org/ns#"
   xmlns:rdf="http://www.w3.org/1999/02/22-rdf-syntax-ns#"
   xmlns:svg="http://www.w3.org/2000/svg"
   xmlns="http://www.w3.org/2000/svg"
   xmlns:sodipodi="http://sodipodi.sourceforge.net/DTD/sodipodi-0.dtd"
   xmlns:inkscape="http://www.inkscape.org/namespaces/inkscape"
   width="492.65088pt"
   height="174.07698pt"
   viewBox="0 0 492.65088 174.07698"
   version="1.2"
   id="svg11"
   sodipodi:docname="ESAlogo_white.svg"
   inkscape:version="0.92.5 (2060ec1f9f, 2020-04-08)">
  <metadata
     id="metadata17">
    <rdf:RDF>
      <cc:Work
         rdf:about="">
        <dc:format>image/svg+xml</dc:format>
        <dc:type
           rdf:resource="http://purl.org/dc/dcmitype/StillImage" />
        <dc:title></dc:title>
      </cc:Work>
    </rdf:RDF>
  </metadata>
  <defs
     id="defs15" />
  <sodipodi:namedview
     pagecolor="#17a0c5"
     bordercolor="#666666"
     borderopacity="1"
     objecttolerance="10"
     gridtolerance="10"
     guidetolerance="10"
     inkscape:pageopacity="1"
     inkscape:pageshadow="2"
     inkscape:window-width="1000"
     inkscape:window-height="728"
     id="namedview13"
     showgrid="false"
     fit-margin-top="2"
     fit-margin-bottom="2"
     fit-margin-left="10"
     fit-margin-right="10"
     inkscape:zoom="0.25651751"
     inkscape:cx="328.4339"
     inkscape:cy="116.05428"
     inkscape:window-x="649"
     inkscape:window-y="142"
     inkscape:window-maximized="0"
     inkscape:current-layer="svg11" />
  <g
     id="surface652"
     transform="translate(-160.07957,-168.08371)">
    <path
       style="fill:#ffffff;fill-opacity:1;fill-rule:nonzero;stroke:none"
       d="m 509.96484,247.06641 c -7.30078,-1.34766 -16.8789,-2.0586 -19.99218,-6.48047 -4.6836,-6.64453 1.16406,-16.3125 16.47656,-15.40625 13.85937,0.8164 15.75,11.51172 15.9414,15.67187 h 19.9961 c 0.27344,-7.83594 -2.97266,-15.9414 -7.83985,-21.07422 -6.20703,-6.48437 -20.80078,-13.24609 -38.89843,-10.53515 -9.73438,1.34765 -22.70313,7.01953 -27.03125,19.72656 -3.78125,11.88281 0,22.6875 7.29687,28.36719 9.19141,7.02734 26.4336,9.13281 33.50781,10.54687 8.55469,1.70703 14.90625,2.84766 13.84766,11.94922 -1.10937,9.5625 -15.92969,12.28125 -25.73828,9.11719 -6.98828,-2.25781 -10,-7.83985 -11.34766,-15.39844 h -21.07031 c 0,9.58203 5.69922,19.69531 11.47266,24.33594 8.5625,6.88281 18.29297,9.30469 29.53125,9.30469 14.76562,0 26.98047,-3.80079 34.3789,-14.73047 3.87891,-5.72657 8.10938,-18.91016 1.34766,-30.79688 -5.94141,-10.27344 -19.45313,-12.43359 -31.87891,-14.59765"
       id="path2"
       inkscape:connector-curvature="0" />
    <path
       style="fill:#ffffff;fill-opacity:1;fill-rule:nonzero;stroke:none"
       d="m 440.24609,221.9375 c -8.58203,-9.80859 -23.60937,-15.40625 -38.90625,-12.97266 -28.69531,4.5625 -35.71875,31.75391 -37.01953,40.53907 -2.42969,16.4414 2.4336,44.03906 31.34766,54.85156 13.5039,5.1289 30.53125,3.24219 43.5,-6.21485 7.29297,-5.41406 14.58984,-17.5664 15.1289,-25.13671 H 430.25 c -0.80859,3.24609 -2.69922,7.57031 -7.02344,10.8125 -9.73437,7.02343 -20.80859,2.43359 -25.67578,-1.08204 -7.29297,-5.40234 -9.99219,-14.3164 -9.99219,-27.01953 0,-17.59375 8.08594,-28.01172 22.05078,-28.01172 12.63672,0 20.44922,10.875 19.83204,19.90235 h -34.05079 v 17.02734 h 58.90625 c 1.4375,-16.02734 -6.00781,-33.5039 -14.05078,-42.69531"
       id="path4"
       inkscape:connector-curvature="0" />
    <path
       style="fill:#ffffff;fill-opacity:1;fill-rule:nonzero;stroke:none"
       d="m 615.43359,277.52734 c -1.96093,5.64453 -7.25781,9.78516 -17.28906,11.10547 -13.23437,1.73828 -22.27734,-6.47656 -16.55078,-17.05469 5.74609,-10.625 26.90625,-6.85937 34.92578,-14.58984 0,2.16016 0.34766,16.41406 -1.08594,20.53906 z m 24.32422,3.51172 c 0,-5.04687 0,-24.76172 0,-29.1875 0,-4.42578 -0.53515,-15.07422 -1.89062,-22.15625 -0.97266,-5.09765 -5.3711,-12.83594 -13.78907,-17.03125 -7.33593,-3.65625 -12.98046,-4.3164 -24.92968,-4.3164 -17.95703,0 -37.28516,6.24609 -38.10938,32.15625 h 21.60938 c 0,-9.375 6.49609,-14.91407 16.4414,-14.91407 9.73047,0 17.98047,5.23828 16.08203,13.83594 -1.89843,8.59375 -17.76562,8.91406 -27.90625,10.26563 -11.76171,1.57031 -27.5664,7.02343 -31.34765,23.50781 -1.35156,6.48437 -0.27344,18.375 9.72265,26.20703 6.76172,5.13281 13.94532,7.30078 23.51172,7.30078 12.21094,0 22.47266,-5.31641 28.1836,-10.53906 0.26562,1.34765 1.61328,6.48047 2.69922,7.83984 h 22.69531 c -3.51563,-7.03125 -2.97266,-17.92578 -2.97266,-22.96875"
       id="path6"
       inkscape:connector-curvature="0" />
    <path
       style="fill:#ffffff;fill-opacity:1;fill-rule:nonzero;stroke:none"
       d="m 210.89062,265.81641 c -5.35937,0 -9.70312,-4.33985 -9.70312,-9.69922 0,-5.35547 4.34375,-9.69922 9.70312,-9.69922 5.35547,0 9.69922,4.34375 9.69922,9.69922 0,5.35937 -4.34375,9.69922 -9.69922,9.69922 z m 75.25,43.51171 c -38.29687,-13.21875 -45.3789,-48.64453 -35.83593,-73.44531 9.53125,-24.80078 42.91406,-36.375 66.07812,-19.75781 23.17188,16.62109 20.71094,48.50781 20.71094,48.50781 h -59.40234 v -17.02734 h 34.47656 c 0,0 0.96094,-6.63672 -4.77735,-12.94922 -7.64843,-8.41797 -18.61718,-8.32031 -25.75,-4.21875 -8.88671,5.10937 -14.98437,23.34375 -10.22265,39.375 4.76172,16.03125 19.3164,22.40234 33.32422,22.40234 20.28515,0 35.38672,-14.02734 35.41406,-36.98437 0.0781,-38.04688 -25.57813,-72.73438 -64.13281,-82.51563 -45.51172,-11.54687 -91.76172,15.98828 -103.3125,61.5 -11.54688,45.51172 15.98437,91.76953 61.5,103.31641 32.48828,8.23828 65.35156,-3.42969 85.69922,-27.33594 -9.63282,2.84766 -21.08204,3.51172 -33.76954,-0.86719"
       id="path8"
       inkscape:connector-curvature="0" />
  </g>
</svg>
