<?xml version="1.0" encoding="UTF-8" standalone="no"?>
<!-- Generator: Adobe Illustrator 19.0.0, SVG Export Plug-In . SVG Version: 6.00 Build 0)  -->

<svg
   xmlns:dc="http://purl.org/dc/elements/1.1/"
   xmlns:cc="http://creativecommons.org/ns#"
   xmlns:rdf="http://www.w3.org/1999/02/22-rdf-syntax-ns#"
   xmlns:svg="http://www.w3.org/2000/svg"
   xmlns="http://www.w3.org/2000/svg"
   xmlns:sodipodi="http://sodipodi.sourceforge.net/DTD/sodipodi-0.dtd"
   xmlns:inkscape="http://www.inkscape.org/namespaces/inkscape"
   version="1.1"
   id="layer"
   x="0px"
   y="0px"
   viewBox="-153 -46 612.20001 217.39999"
   xml:space="preserve"
   sodipodi:docname="eurac-logo_white.svg"
   width="612.20001"
   height="217.39999"
   inkscape:version="0.92.5 (2060ec1f9f, 2020-04-08)"><metadata
   id="metadata17"><rdf:RDF><cc:Work
       rdf:about=""><dc:format>image/svg+xml</dc:format><dc:type
         rdf:resource="http://purl.org/dc/dcmitype/StillImage" /><dc:title></dc:title></cc:Work></rdf:RDF></metadata><defs
   id="defs15" /><sodipodi:namedview
   pagecolor="#17a0c5"
   bordercolor="#666666"
   borderopacity="1"
   objecttolerance="10"
   gridtolerance="10"
   guidetolerance="10"
   inkscape:pageopacity="0"
   inkscape:pageshadow="2"
   inkscape:window-width="640"
   inkscape:window-height="480"
   id="namedview13"
   showgrid="false"
   fit-margin-top="1"
   fit-margin-bottom="1"
   fit-margin-left="7"
   fit-margin-right="5"
   inkscape:zoom="0.36196319"
   inkscape:cx="311.4"
   inkscape:cy="103.90001"
   inkscape:window-x="640"
   inkscape:window-y="277"
   inkscape:window-maximized="0"
   inkscape:current-layer="layer" />
<style
   type="text/css"
   id="style2">
	.st0{fill:#CF4D29;}
</style>
<g
   id="g10"
   transform="translate(-14.6,-212.5)"
   style="fill:#ffffff">
	<g
   id="g8"
   style="fill:#ffffff">
		<path
   class="st0"
   d="m 386.1,380.9 c 4.1,-0.2 10.4,-0.5 16.8,-0.5 6.3,0 13,0.3 17.2,0.5 v -4.6 l -5.5,-0.8 c -3.6,-0.7 -5.4,-1.7 -5.4,-13.2 v -47.7 c 4.3,-2.8 11.7,-6.4 19.1,-6.4 14,0 17.3,7.8 17.3,20.3 v 33.8 c 0,11.6 -1.7,12.5 -5.4,13.2 l -5.4,0.8 v 4.6 c 4.1,-0.2 10.4,-0.5 16.8,-0.5 6.3,0 13,0.3 17.2,0.5 v -4.6 l -5.5,-0.8 c -3.6,-0.7 -5.4,-1.7 -5.4,-13.2 v -35.7 c 0,-16.7 -5.6,-28.2 -25.1,-28.2 -8.8,0 -18.2,5.6 -23.6,10.7 V 264 c -8.3,4.1 -14.4,6.4 -22.9,8.9 v 4 C 397,279 397,281 397,289.4 v 72.8 c 0,11.6 -1.7,12.5 -5.4,13.2 l -5.5,0.8 z m -39.8,2 c 12.2,0 21.5,-5.6 24.4,-10.6 l -0.8,-4.3 c -5,3.3 -11.7,5.1 -19.1,5.1 -17.2,0 -29.2,-11.7 -29.2,-32.8 0,-21.9 11.7,-34.8 25.7,-34.8 11.7,0 15.5,6.3 16,15.7 h 6.3 c 0,-5.4 0.2,-13.4 0.7,-18.8 -5.5,-2 -13.2,-4 -22,-4 -21.6,0 -39.6,19 -39.6,43.6 0,25.1 14,40.9 37.6,40.9 m -97.5,-2 c 4.1,-0.2 10.4,-0.7 16.8,-0.7 6.3,0 15.2,0.5 19.3,0.7 v -4.6 l -7.6,-0.8 c -3.6,-0.5 -5.4,-1.7 -5.4,-13.2 v -46.7 c 5.1,-4.1 11.7,-6.3 17.5,-6.3 3,0 7.1,0.5 9.1,1.5 l 1.3,-11.4 c -2,-0.5 -4.1,-1 -7.1,-1 -6.8,0 -16.7,5.8 -20.8,11.6 v -12.4 c -8.2,3.6 -14.4,5.4 -22.9,7.9 v 4 c 10.7,2.1 10.7,4.1 10.7,12.5 v 40.3 c 0,11.6 -1.7,12.5 -5.4,13.2 l -5.4,0.8 v 4.6 z m -57.3,-7.5 c -8.1,0 -13.5,-5 -13.5,-13 0,-10.1 7.6,-16.2 24.6,-16.2 1.8,0 4.6,0 6.4,0.2 -0.2,3.5 -0.5,15.8 -0.5,21.8 -3.3,3.7 -9.4,7.2 -17,7.2 m -4.4,9.5 c 10.1,0 19,-6.3 22,-11.2 h 0.3 c 0,6.8 4.5,11.2 12,11.2 4.8,0 9.7,-1.2 12.5,-3 v -4.6 c -10.1,0 -13,-2.3 -13,-10.4 0,-14.9 0.7,-27.4 0.7,-40.3 0,-16 -9.2,-26.2 -27.9,-26.2 -9.1,0 -18.7,4.8 -22.6,9.4 l 0.8,4.8 c 5.1,-2.8 11.2,-4.5 18.8,-4.5 12.9,0 18.5,6.8 18.5,19.5 v 9.6 c -2.5,-0.2 -6.6,-0.2 -8.9,-0.2 -21.1,0 -34.8,9.9 -34.8,25.4 0,12.1 8.9,20.5 21.6,20.5 m -86.3,-53.8 c 1.3,-11.2 8.3,-23.4 22.1,-23.4 11.6,0 17.3,10.1 17.3,19.8 0,2.3 -1,3.6 -3.8,3.6 z m 23.6,53.8 c 11.9,0 22.3,-5.1 25.4,-10.2 l -0.5,-4.1 c -5.3,2.6 -12.4,4.6 -21.8,4.6 -18.5,0 -27.4,-14.9 -27.4,-32.7 0,-1.5 0,-3.1 0.2,-4.8 h 53.3 c 0.3,-2.1 0.3,-3.8 0.3,-5.9 0,-16 -9.9,-31.4 -30.4,-31.4 -21.5,0 -36.5,18.5 -36.5,43.6 0.1,25.2 13.1,40.9 37.4,40.9 m -83.1,0 c 16.5,0 28.5,-11.1 28.5,-24.3 0,-29.5 -41.6,-21.6 -41.6,-40.8 0,-8.4 6.4,-12.7 16.3,-12.7 11.1,0 16,5.5 16.8,16 h 6.1 c -0.5,-7.1 -0.7,-11.4 -0.3,-18.5 -5,-2 -13.5,-4.3 -21.9,-4.3 -16,0 -27.9,8.6 -27.9,21.8 0,29.9 41.4,19.8 41.4,40.4 0,9.2 -7.3,15 -17.7,15 -14,0 -17.5,-6.4 -19,-18.2 h -6.1 c 0.5,7.8 0.8,13.9 0.5,21.6 6.8,2.4 14.7,4 24.9,4 m -93.5,-53.8 c 1.3,-11.2 8.3,-23.4 22.1,-23.4 11.6,0 17.3,10.1 17.3,19.8 0,2.3 -1,3.6 -3.8,3.6 z m 23.6,53.8 c 11.9,0 22.3,-5.1 25.4,-10.2 l -0.5,-4.1 c -5.3,2.6 -12.4,4.6 -21.8,4.6 -18.5,0 -27.4,-14.9 -27.4,-32.7 0,-1.5 0,-3.1 0.2,-4.8 H 0.6 c 0.3,-2.1 0.3,-3.8 0.3,-5.9 0,-16 -9.9,-31.4 -30.4,-31.4 -21.5,0 -36.5,18.5 -36.5,43.6 0.1,25.2 13.1,40.9 37.4,40.9 m -97.2,-2 c 4.1,-0.2 10.4,-0.7 16.8,-0.7 6.3,0 15.2,0.5 19.3,0.7 v -4.6 l -7.6,-0.8 c -3.6,-0.5 -5.4,-1.7 -5.4,-13.2 v -46.7 c 5.1,-4.1 11.7,-6.3 17.5,-6.3 3,0 7.1,0.5 9.1,1.5 l 1.3,-11.4 c -2,-0.5 -4.1,-1 -7.1,-1 -6.8,0 -16.7,5.8 -20.8,11.6 v -12.4 c -8.3,3.6 -14.4,5.4 -22.9,7.9 v 4 c 10.7,2.1 10.7,4.1 10.7,12.5 v 40.3 c 0,11.6 -1.7,12.5 -5.4,13.2 l -5.4,0.8 v 4.6 z"
   id="path4"
   inkscape:connector-curvature="0"
   style="fill:#ffffff" />
		<path
   class="st0"
   d="m 280.8,256.9 c 9.5,0 17,-1.9 22.4,-4 v -24.5 c -6,3.3 -11,4.7 -20,4.7 -10.3,0 -16.5,-7 -16.5,-20 0,-15.8 6.7,-22.1 16.3,-22.1 7.9,0 13.5,1.7 18.7,3.7 v -24 c -5.1,-1.4 -11.4,-3.2 -21.7,-3.2 -30.5,0 -46.2,19.4 -46.2,45.5 0.1,27.2 14.4,43.9 47,43.9 M 176.9,235.7 c -4.9,0 -8.1,-1.6 -8.1,-6.5 0,-5.8 3.2,-8.1 11.9,-8.1 1.2,0 2.1,0 3.9,0.2 v 11 c -1.7,1.6 -3.8,3.4 -7.7,3.4 m -10.6,21.2 c 11.7,0 19.3,-5.4 22.6,-10.9 3.3,6.8 9.6,10.9 20.5,10.9 8.2,0 12.1,-1.9 14.5,-3.5 V 234 c -0.9,0.2 -2.1,0.4 -2.8,0.4 -3.5,0 -4.9,-2.1 -4.9,-6.1 v -27 c 0,-22.9 -11.4,-33.6 -39.4,-33.6 -12.1,0 -22.6,2.1 -28.9,4.4 v 23.3 c 5.1,-1.6 15.1,-3.7 23.5,-3.7 9.5,0 13.3,3.3 13.3,10.5 v 2.8 c -1.2,0 -2.6,-0.2 -5.6,-0.2 -23.7,0 -40.8,6.7 -40.8,26.5 -0.1,17.9 12.4,25.6 28,25.6 m -94.5,-1.4 h 31.5 v -56.4 c 4.4,-2.3 11.9,-4.4 18.9,-4.4 4.5,0 7.4,0.5 9.6,1.1 v -27.3 c -1.6,-0.5 -3.5,-0.9 -7,-0.9 -7.9,0 -15.9,3.3 -22.3,10.5 V 169 H 71.8 Z M -3,256.9 c 11.7,0 18.7,-4.6 23.6,-8.2 v 6.8 H 51.3 V 169 H 19.8 v 59 c -3,2.3 -6.7,4.6 -10.5,4.6 -6.3,0 -9.5,-2.8 -9.5,-10.7 V 169 h -31.7 v 57.6 c 0,17.3 7.6,30.3 28.9,30.3 m -95.3,-54.7 c 0.3,-6.1 3,-12.4 10.5,-12.4 6.7,0 9.5,5.8 9.5,11.4 v 1.1 h -20 z m 14.7,54.7 c 11,0 20.8,-1.7 29.4,-4.9 v -23.3 c -6.3,2.6 -16.1,5.3 -26.8,5.3 -14,0 -17.3,-5.3 -17.9,-14.7 h 50.6 c 0.3,-3.2 0.5,-6.1 0.5,-9.3 0,-22.3 -9.6,-42.4 -40.3,-42.4 -29.4,0 -43.3,21.5 -43.3,44.5 0.2,26.2 13.3,44.8 47.8,44.8"
   id="path6"
   inkscape:connector-curvature="0"
   style="fill:#ffffff" />
	</g>
</g>
</svg>