<?xml version="1.0" encoding="UTF-8" standalone="no"?>
<!-- Created with Inkscape (http://www.inkscape.org/) -->

<svg
   xmlns:dc="http://purl.org/dc/elements/1.1/"
   xmlns:cc="http://creativecommons.org/ns#"
   xmlns:rdf="http://www.w3.org/1999/02/22-rdf-syntax-ns#"
   xmlns:svg="http://www.w3.org/2000/svg"
   xmlns="http://www.w3.org/2000/svg"
   xmlns:sodipodi="http://sodipodi.sourceforge.net/DTD/sodipodi-0.dtd"
   xmlns:inkscape="http://www.inkscape.org/namespaces/inkscape"
   width="93.776558mm"
   height="36.161564mm"
   viewBox="0 0 93.776558 36.161564"
   version="1.1"
   id="svg8"
   inkscape:version="0.92.3 (2405546, 2018-03-11)"
   sodipodi:docname="mobylogo.svg">
  <defs
     id="defs2" />
  <sodipodi:namedview
     id="base"
     pagecolor="#ffffff"
     bordercolor="#666666"
     borderopacity="1.0"
     inkscape:pageopacity="0.0"
     inkscape:pageshadow="2"
     inkscape:zoom="0.35"
     inkscape:cx="32.929828"
     inkscape:cy="-14.520321"
     inkscape:document-units="mm"
     inkscape:current-layer="layer1"
     showgrid="false"
     fit-margin-top="0"
     fit-margin-left="0"
     fit-margin-right="0"
     fit-margin-bottom="0"
     inkscape:window-width="927"
     inkscape:window-height="1025"
     inkscape:window-x="67"
     inkscape:window-y="27"
     inkscape:window-maximized="0" />
  <metadata
     id="metadata5">
    <rdf:RDF>
      <cc:Work
         rdf:about="">
        <dc:format>image/svg+xml</dc:format>
        <dc:type
           rdf:resource="http://purl.org/dc/dcmitype/StillImage" />
        <dc:title></dc:title>
      </cc:Work>
    </rdf:RDF>
  </metadata>
  <g
     inkscape:label="Layer 1"
     inkscape:groupmode="layer"
     id="layer1"
     transform="translate(-83.891483,-108.82993)">
    <g
       id="g9252"
       transform="matrix(0.26458333,0,0,0.26458333,788.55515,-375.89998)">
      <path
         style="fill:#a6d6e7"
         d="m -2415.3635,1967.8493 c -5.1689,-1.5411 -7.0964,-6.1959 -3.8924,-9.3999 1.2774,-1.2774 2.7884,-1.4753 7.3358,-0.9609 4.3333,0.4903 6.497,0.2498 8.8912,-0.9883 4.1984,-2.1711 4.1011,-3.8513 -0.1766,-3.0488 -5.0574,0.9488 -11.3499,-1.2105 -15.9998,-5.4903 l -4.1594,-3.8282 -4.1749,3.7104 c -6.6212,5.8846 -13.5523,7.3292 -21.7735,4.538 -4.133,-1.4032 -4.7363,-1.3911 -7.0759,0.1419 -3.4096,2.234 -7.0377,0.6626 -7.9385,-3.4383 l -0.6498,-2.9586 -5.1937,3.2872 c -2.8565,1.808 -6.6175,4.6856 -8.3577,6.3945 -3.8391,3.7703 -4.8049,3.8475 -6.9615,0.5562 -0.9193,-1.4031 -3.0672,-3.2664 -4.773,-4.1407 -1.7058,-0.8743 -4.4515,-2.7213 -6.1015,-4.1045 l -3,-2.5149 -0.3185,2.6774 c -0.3795,3.1899 -4.2807,6.0545 -7.049,5.1759 -3.0308,-0.962 -4.1325,-5.8115 -4.1325,-18.1913 0,-9.9687 -0.2404,-11.5912 -1.9746,-13.3254 -2.7458,-2.7458 -6.376,-3.4459 -9.6724,-1.8653 -4.4721,2.1443 -5.322,5.1004 -5.3383,18.5668 -0.014,11.866 -0.087,12.2744 -2.4657,13.833 -6.0345,3.9539 -8.549,-0.9366 -8.549,-16.6273 0,-5.923 -0.2795,-11.4975 -0.6212,-12.3878 -0.9656,-2.5164 -6.1356,-4.7571 -9.3481,-4.0515 -5.6621,1.2436 -6.4818,3.38 -7.0307,18.324 -0.4961,13.5071 -0.5209,13.6251 -3.1817,15.1149 -2.4489,1.3711 -2.8611,1.339 -4.75,-0.3703 -1.9579,-1.772 -2.0683,-2.9247 -2.0683,-21.5944 0,-14.6042 0.3244,-19.9694 1.25,-20.6737 0.6875,-0.5232 6.1757,-1.0174 12.1959,-1.0985 9.9288,-0.1336 11.3561,0.082 15.359,2.3192 l 4.413,2.4665 3.0985,-2.2063 c 4.5379,-3.2312 14.0058,-3.6713 19.4318,-0.9032 2.2458,1.1458 5.0777,3.4796 6.293,5.1863 l 2.2096,3.1032 3.6246,-3.4703 c 5.1623,-4.9426 9.2147,-6.6907 15.5098,-6.6907 6.7145,0 9.3448,0.946 14.0037,5.0366 l 3.6111,3.1706 v -9.5385 c 0,-5.2462 0.4341,-10.6802 0.9646,-12.0757 1.2798,-3.366 5.4541,-4.429 8.0757,-2.0565 1.6317,1.4767 1.9597,3.0977 1.9597,9.6859 0,7.7809 0.037,7.8988 2.25,7.095 1.2375,-0.4496 5.6592,-0.8174 9.8259,-0.8174 6.5913,0 8.1157,0.3574 11.7286,2.75 4.9038,3.2474 5.1955,3.3008 5.1955,0.95 0,-0.99 0.54,-2.34 1.2,-3 1.5717,-1.5717 6.2727,-1.5403 7.5931,0.051 0.5709,0.6879 1.1885,7.253 1.3725,14.589 0.3309,13.1973 0.3641,13.3637 3.1402,15.7493 3.5862,3.0817 7.8035,3.081 11.3884,0 2.7744,-2.3858 2.8097,-2.5623 3.1545,-15.75 0.1918,-7.3355 0.8094,-13.8997 1.3725,-14.5872 1.3025,-1.5905 6.0073,-1.6216 7.5788,-0.05 0.66,0.66 1.2,3.585 1.2,6.5 0,2.915 0.2262,5.3 0.5026,5.3 0.2764,0 2.1889,-1.8688 4.25,-4.1529 2.0611,-2.2841 5.1954,-4.7591 6.9653,-5.5 4.6288,-1.9378 11.2472,-1.6591 15.8068,0.6655 l 3.9477,2.0126 1.7218,-2.2626 c 1.3969,-1.8357 2.0599,-2.0536 3.5138,-1.1547 1.5986,0.9883 1.8246,3.0932 2.0942,19.5 0.3274,19.9303 -0.2913,23.943 -4.4546,28.8909 -5.0945,6.0544 -14.722,8.7103 -21.8081,6.0162 -5.9335,-2.2559 -3.6558,-7.7692 2.4824,-6.0087 4.754,1.3634 9.4549,0.2848 12.9376,-2.9685 2.7738,-2.5911 4.9014,-7.5103 3.7474,-8.6643 -0.2934,-0.2933 -1.6405,0.1921 -2.9937,1.0787 -7.2409,4.7445 -18.6588,2.2394 -24.82,-5.4454 l -3.3932,-4.2324 -0.5487,7.5959 c -0.4522,6.2604 -1.0686,8.346 -3.5062,11.8628 -5.3315,7.692 -15.9292,11.3886 -24.9439,8.7009 z m 53.4988,-23.9805 c 4.1365,-2.123 6.3769,-6.016 6.7959,-11.8086 0.3905,-5.3986 0.189,-6.0925 -2.7372,-9.4252 -4.0611,-4.6254 -8.811,-6.2866 -13.526,-4.7305 -10.083,3.3277 -12.6501,18.0539 -4.2504,24.3826 4.6766,3.5237 8.9694,4.0186 13.7177,1.5817 z m -74.9673,-2.4704 c 3.4887,-1.8041 5.9673,-6.1775 5.9673,-10.5291 0,-9.7306 -12.4871,-15.5279 -18.7151,-8.6887 -4.6018,5.0535 -5.2945,8.8049 -2.6534,14.3705 2.7868,5.8729 9.3956,7.9529 15.4012,4.8473 z m -188.2658,12.3046 c -2.1579,-1.6169 -26.7669,-45.2338 -26.7669,-47.4416 0,-1.3752 0.8579,-1.5374 5.5631,-1.0517 7.8144,0.8065 16.9069,-0.8946 23.465,-4.3901 6.9429,-3.7005 15.4965,-11.0843 17.6383,-15.2261 2.4392,-4.7168 3.4362,-16.1883 1.7565,-20.2086 -1.5441,-3.6955 -5.8061,-7.4696 -8.4353,-7.4696 -2.142,0 -4.3934,-2.5343 -3.5147,-3.9562 0.9738,-1.5756 3.4363,-1.2662 8.1737,1.0272 5.3279,2.5792 8.8249,7.8215 7.9928,11.9821 l -0.5894,2.9469 h 9.0407 c 4.9724,0 9.9154,-0.4681 10.9845,-1.0402 3.1605,-1.6915 4.3248,2.8858 3.0051,11.8136 -2.0236,13.69 -9.8259,25.0697 -22.1061,32.2417 -13.7684,8.0411 -19.335,18.0802 -20.2308,36.4849 -0.2018,4.1454 -0.5865,5.0492 -2.2507,5.2877 -1.1039,0.1583 -2.7806,-0.2917 -3.7258,-1 z m 279.9343,-2.4198 c -0.3856,-0.3857 -0.7012,-9.4154 -0.7012,-20.0659 0,-16.3631 0.2345,-19.4547 1.5127,-19.9453 2.1195,-0.8133 4.4873,1.4376 4.4873,4.2657 0,2.9344 1.5517,3.0837 3.0453,0.2929 1.4726,-2.7515 6.8479,-4.9153 12.2107,-4.9153 5.6733,0 13.1324,3.7144 13.5641,6.7545 0.4714,3.3194 -2.318,3.8508 -7.2592,1.383 -5.5063,-2.75 -8.7929,-2.7021 -12.1398,0.1767 -4.0131,3.4519 -2.1528,6.1695 5.3253,7.7793 11.1996,2.411 16.2536,6.3488 16.2536,12.6642 0,10.2823 -14.2103,15.694 -25.4782,9.7028 -2.6269,-1.3967 -4.8314,-2.4092 -4.899,-2.25 -1.6332,3.8496 -4.3335,5.7454 -5.9216,4.1574 z m 27.4832,-8.0348 c 4.3258,-3.9147 1.272,-7.445 -8.5796,-9.9182 -4.4626,-1.1203 -8.0788,-2.7702 -10.25,-4.6765 l -3.3548,-2.9456 v 7.6036 c 0,7.2675 0.1017,7.6036 2.3,7.6036 1.265,0 2.7837,0.4837 3.3748,1.0748 1.9453,1.9453 8.77,3.9228 11.7596,3.4074 1.6139,-0.2783 3.7514,-1.2454 4.75,-2.1491 z m -27.7734,-38.7046 c -1.1117,-2.897 0.021,-5.1285 2.6027,-5.1285 2.0959,0 2.4863,0.4711 2.4863,3 0,2.3515 -0.4873,3.0692 -2.2545,3.3201 -1.3222,0.1878 -2.4943,-0.305 -2.8345,-1.1916 z m -302.911,-3.7398 c -7.9058,-1.7993 -9.1636,-2.7548 -12.1347,-9.2182 -2.5295,-5.5026 -2.8319,-7.2529 -2.7934,-16.1705 0.052,-11.9541 2.3182,-18.8351 8.8427,-26.8437 8.1154,-9.9612 22.4863,-17.2113 32.6451,-16.4693 l 4.286,0.313 -0.2245,13 c -0.2401,13.9054 -0.8229,15.5 -5.6644,15.5 -3.637,0 -8.8322,4.2518 -11.3186,9.2632 -1.9153,3.8606 -2.2323,5.6234 -1.677,9.3265 0.8265,5.5115 5.9751,11.7391 11.1048,13.4321 1.8887,0.6233 3.434,1.538 3.434,2.0327 0,1.5719 -4.3086,3.794 -10.4601,5.3946 -6.5724,1.7102 -10.0397,1.8052 -16.0399,0.4396 z m 24.0005,-14.465 c -5.0722,-2.6447 -7.1448,-7.946 -5.0586,-12.9388 2.8257,-6.763 10.81,-8.6681 16.4474,-3.9246 5.937,4.9956 4.6454,14.0649 -2.4236,17.0185 -4.2848,1.7903 -5.2668,1.7733 -8.9652,-0.1551 z m 28.9003,-21.1737 c -1.3077,-5.6423 -5.2632,-11.005 -9.7024,-13.154 -2.3814,-1.1528 -5.2577,-2.096 -6.3917,-2.096 -2.6204,0 -4.7196,-2.4815 -3.9019,-4.6124 0.7874,-2.0519 6.9178,-1.284 12.5052,1.5665 7.4881,3.8201 14.3744,14.5353 12.4927,19.4388 -1.0287,2.6807 -4.2884,1.9359 -5.0019,-1.1429 z m 9.316,2.0572 c -0.2595,-0.444 -1.22,-3.4133 -2.1343,-6.5985 -2.8113,-9.7937 -9.8586,-15.9728 -21.283,-18.6608 -5.7755,-1.3589 -7.6664,-2.9281 -6.667,-5.5326 1.6875,-4.3975 19.8663,1.2732 26.6582,8.3157 5.2086,5.4009 8.143,11.732 8.1789,17.6465 0.027,4.3931 -0.2397,5.061 -2.1252,5.3297 -1.1856,0.1689 -2.368,-0.056 -2.6276,-0.5 z"
         id="path9266"
         inkscape:connector-curvature="0" />
      <path
         style="fill:#a5b1ca"
         d="m -2417.1734,1966.3126 c -2.3121,-1.2535 -2.7541,-2.0862 -2.5,-4.71 l 0.3087,-3.1873 6.5,-0.067 c 8.9739,-0.093 9.3398,-0.1692 11.8114,-2.4719 3.1786,-2.9612 2.7049,-3.84 -1.7481,-3.2427 -6.6848,0.8966 -10.9068,-0.4918 -16.0097,-5.2649 l -4.718,-4.4132 -2.9178,3.106 c -5.9646,6.3492 -16.2413,8.6257 -24.1057,5.3397 -3.2359,-1.352 -3.8026,-1.352 -5.2966,0 -3.6273,3.2827 -8.0155,0.8628 -8.0155,-4.4202 0,-2.4764 -1.2614,-2.6606 -3.0945,-0.4518 -0.7367,0.8876 -3.7524,2.9756 -6.7015,4.64 -2.9491,1.6644 -5.8847,3.8631 -6.5235,4.8861 -1.4743,2.3608 -3.2068,2.3675 -4.8738,0.019 -0.7187,-1.0125 -3.3317,-3.0931 -5.8067,-4.6235 -2.475,-1.5305 -5.4571,-3.6534 -6.6269,-4.7177 -2.1197,-1.9286 -2.1292,-1.9257 -2.8304,0.8679 -0.9677,3.8558 -2.3757,5.3143 -5.13,5.3143 -3.6126,0 -4.4127,-2.8752 -4.4127,-15.8575 0,-11.4391 -0.1188,-12.1302 -2.5889,-15.0658 -3.4066,-4.0485 -9.2496,-4.3291 -12.9566,-0.6222 -2.3404,2.3405 -2.4545,3.0272 -2.4545,14.7775 0,13.5599 -1.0564,16.768 -5.5215,16.768 -3.6693,0 -4.4785,-2.8006 -4.4785,-15.5 0,-15.0927 -1.6668,-18.4043 -9.2955,-18.4682 -2.7246,-0.023 -4.4879,0.6607 -6.25,2.4227 -2.3404,2.3405 -2.4545,3.0272 -2.4545,14.7775 0,13.1227 -1.0838,16.768 -4.9853,16.768 -4.5501,0 -5.0147,-1.9984 -5.0147,-21.5714 0,-17.3239 0.1245,-18.5531 2.0773,-20.5059 1.3775,-1.3775 2.6408,-1.8227 3.75,-1.3215 0.92,0.4156 2.9102,0.6854 4.4227,0.5995 13.0513,-0.7416 14.2821,-0.6243 18.5,1.7626 l 4.25,2.405 3.75,-2.0989 c 8.773,-4.9101 17.2611,-3.7383 23.8379,3.291 l 4.088,4.3692 3.412,-3.5501 c 4.1297,-4.2968 7.437,-6.12 12.5991,-6.9454 5.5008,-0.8796 11.7897,1.0983 16.221,5.1017 2.087,1.8856 4.0865,3.1363 4.4433,2.7796 0.3568,-0.3568 0.6487,-5.4686 0.6487,-11.3596 0,-11.5456 0.7561,-13.4151 5.1699,-12.7826 3.2729,0.4691 4.7985,4.329 4.8154,12.1838 0.013,6.1428 0.197,6.7799 1.7647,6.1169 8.2222,-3.4771 16.6259,-2.7128 22.9152,2.0843 3.7304,2.8454 4.3348,2.9767 4.3348,0.9418 0,-1.6871 3.4663,-5.5 5,-5.5 0.55,0 1.9,0.9 3,2 1.779,1.779 2,3.3333 2,14.0657 0,6.7308 0.4777,12.9585 1.0805,14.0847 0.5943,1.1104 2.6193,2.6619 4.5,3.4477 2.9638,1.2383 3.8752,1.2383 6.839,0 1.8807,-0.7858 3.9057,-2.3373 4.5,-3.4477 0.5995,-1.1202 1.0805,-7.2908 1.0805,-13.8621 0,-9.1006 0.3605,-12.358 1.5567,-14.0658 1.9279,-2.7525 3.847,-2.8188 6.4433,-0.2225 1.6381,1.6381 2.0148,3.4025 2.0816,9.75 l 0.082,7.75 1.4995,-3.5 c 0.8247,-1.925 3.1389,-5.1973 5.1427,-7.2719 5.9463,-6.1562 14.268,-7.1603 22.0018,-2.6548 4.1842,2.4377 5.1928,2.4234 5.1928,-0.073 0,-2.8779 2.8445,-2.4676 3.594,0.5184 0.3476,1.3851 0.4466,10.2726 0.22,19.75 -0.4382,18.32 -1.022,20.8021 -5.9826,25.4339 -5.0798,4.7429 -13.7401,6.6087 -18.7192,4.033 -4.0514,-2.0959 -2.4169,-3.2353 4.6414,-3.2353 5.4061,0 7.3766,-0.4495 9.9185,-2.2626 3.4225,-2.4413 6.9849,-10.0829 5.9535,-12.7707 -0.5489,-1.4305 -0.9337,-1.3835 -3.4714,0.4235 -5.4683,3.8938 -13.8907,4.475 -19.6777,1.358 -2.8498,-1.5349 -5.939,-5.1557 -8.3169,-9.7482 l -2.0712,-4 -0.044,6.8072 c -0.085,13.0435 -4.0805,20.988 -12.4735,24.8 -4.9669,2.2559 -13.9834,2.4022 -17.8794,0.2901 z m 57.2221,-22.126 c 4.2126,-3.0541 7.401,-10.451 6.5855,-15.2781 -0.783,-4.634 -4.3321,-9.3385 -8.7808,-11.639 -5.9631,-3.0836 -14.9276,0.2827 -18.3434,6.8882 -2.1499,4.1574 -1.4376,12.4561 1.4126,16.4589 4.4381,6.2328 13.1979,7.8678 19.1261,3.57 z m -77.5857,-1.6349 c 5.6137,-2.3455 8.6229,-9.2259 6.6499,-15.2044 -2.7371,-8.2935 -12.8013,-11.2419 -19.1156,-5.6 -2.6618,2.3783 -3.2428,3.7144 -3.6263,8.3394 -0.4201,5.0661 -0.2037,5.7954 2.7018,9.1047 2.8265,3.2192 4.5946,4.1363 8.8446,4.5877 0.7052,0.075 2.7507,-0.4774 4.5456,-1.2274 z m -188.0061,10.1136 c -2.813,-3.1224 -26.627,-45.7779 -25.9405,-46.4644 0.3067,-0.3067 4.9589,-0.6145 10.3383,-0.6841 8.7822,-0.1135 10.4734,-0.4533 16.5682,-3.329 7.1031,-3.3515 17.7697,-12.551 20.361,-17.5606 0.7932,-1.5335 1.5343,-5.1335 1.6468,-8 l 0.2046,-5.2119 10.5,-0.6132 c 5.775,-0.3372 11.4,-0.7872 12.5,-1 1.874,-0.3624 1.9937,0.1254 1.9006,7.7427 -0.178,14.5724 -7.3754,25.8009 -23.0167,35.9082 -12.8093,8.2773 -17.4274,16.0158 -18.1789,30.4623 -0.5786,11.123 -2.5211,13.5922 -6.8834,8.75 z m 294.2693,-3.2307 c -4.4747,-1.5946 -8.1358,-4.8287 -7.1929,-6.3542 0.4089,-0.6616 2.6594,-0.1125 6.2199,1.5175 6.6012,3.0222 12.2291,2.7492 15.9804,-0.7749 4.8996,-4.603 1.5965,-8.844 -8.9449,-11.4844 -8.5474,-2.141 -12.6534,-5.3462 -12.6534,-9.8773 0,-9.2223 13.0386,-13.4577 22.9233,-7.4465 2.6442,1.6081 3.0326,2.2487 2.0683,3.4106 -1.0206,1.2298 -1.7297,1.154 -5.0496,-0.5397 -5.2381,-2.6723 -10.1661,-2.5419 -13.5377,0.3582 -2.1319,1.8339 -2.5691,2.8785 -2.0576,4.9166 0.6672,2.6583 3.3491,3.9914 13.5704,6.7452 2.4295,0.6545 5.7475,2.5203 7.3734,4.1462 2.5038,2.5039 2.8682,3.4983 2.3812,6.499 -0.7308,4.5034 -2.1924,6.2359 -7.1717,8.5009 -4.7593,2.1649 -8.6103,2.2709 -13.9091,0.3828 z m -13.5909,-18.0193 c 0,-17.2204 0.1338,-18.6209 1.75,-18.3096 1.5892,0.306 1.75,1.9879 1.75,18.3096 0,16.3217 -0.1608,18.0036 -1.75,18.3096 -1.6162,0.3113 -1.75,-1.0892 -1.75,-18.3096 z m 0.3358,-28.0672 c -0.7911,-2.0617 1.2825,-4.2145 2.697,-2.8 1.1452,1.1452 0.2811,4.3672 -1.1712,4.3672 -0.5084,0 -1.195,-0.7052 -1.5258,-1.5672 z m -307.6656,-3.9977 c -4.3895,-1.4016 -5.0576,-2.0396 -7.3272,-6.997 -5.1417,-11.231 -4.8969,-24.5633 0.6614,-36.0138 3.6263,-7.4704 12.8604,-16.5641 20.2144,-19.9071 5.9623,-2.7103 18.5845,-5.2071 19.6366,-3.8843 0.3793,0.4769 0.5323,6.7764 0.34,13.9988 l -0.3496,13.1316 -3.4639,0.5622 c -11.0601,1.7948 -17.3927,13.533 -12.988,24.0748 1.4606,3.4956 6.4894,7.876 10.4111,9.0685 3.144,0.956 2.345,2.6557 -2.3373,4.9724 -5.2397,2.5925 -18.168,3.1106 -24.7975,0.9939 z m 27.4399,-13.8306 c -5.3757,-2.9795 -6.5624,-9.7251 -2.5498,-14.4938 6.2023,-7.371 17.3617,-3.3883 17.4175,6.2162 0.043,7.5 -8.0953,12.0313 -14.8677,8.2776 z m 21.2223,-21.3545 c -1.2574,-2.5732 -3.2446,-4.4613 -6.3324,-6.0167 -5.0557,-2.5466 -6.2448,-4.2333 -2.9845,-4.2333 5.9256,0 12.9718,6.3781 12.9808,11.75 0.01,3.3747 -1.604,2.7157 -3.6639,-1.5 z m 17.8676,2.55 c -0.66,-0.66 -1.2,-1.8453 -1.2,-2.634 0,-9.673 -10.8518,-20.6014 -22.5552,-22.7145 -4.388,-0.7923 -6.4448,-2.0583 -6.4448,-3.967 0,-2.0738 2.7407,-2.5182 8.2848,-1.3433 13.4301,2.8461 22.5633,11.4273 25.7865,24.2279 0.9133,3.627 0.8972,4.964 -0.074,6.1343 -1.5024,1.8103 -2.2268,1.8669 -3.7971,0.2966 z m -10.173,-4.2036 c -1.6048,-5.7318 -6.4802,-10.3741 -13.1909,-12.5603 -6.3748,-2.0767 -7.9513,-5.0491 -2.6594,-5.0141 4.066,0.027 10.4077,2.845 13.9885,6.2162 5.7005,5.3667 8.9748,15.7618 4.9648,15.7618 -1.357,0 -2.2084,-1.2082 -3.103,-4.4036 z"
         id="path9264"
         inkscape:connector-curvature="0" />
      <path
         style="fill:#48abd1"
         d="m -2415.8647,1965.621 c -1.6507,-0.8351 -2.5,-2.104 -2.5,-3.7352 0,-2.3573 0.2521,-2.4594 5.5,-2.228 3.025,0.1334 6.9555,-0.2367 8.7344,-0.8224 2.9999,-0.9877 7.2656,-5.1076 7.2656,-7.0173 0,-0.4552 -2.8323,-0.5631 -6.2941,-0.2398 -5.2168,0.4871 -7.0099,0.2226 -10.476,-1.5457 -2.3001,-1.1734 -5.1774,-3.4799 -6.394,-5.1254 -2.7876,-3.7704 -3.8965,-3.7538 -6.7466,0.1012 -4.5566,6.1631 -15.8197,8.7177 -23.7772,5.3928 -3.2359,-1.352 -3.8026,-1.352 -5.2966,0 -3.4997,3.1672 -7.0155,1.099 -7.0155,-4.1269 0,-4.6118 -1.199,-4.7848 -5.0916,-0.7348 -1.8746,1.9505 -4.7584,4.2344 -6.4084,5.0753 -1.65,0.8408 -4.2442,2.693 -5.7648,4.116 l -2.7649,2.5871 -1.4684,-2.0965 c -0.8077,-1.153 -3.3885,-3.2258 -5.7352,-4.6061 -2.3467,-1.3803 -5.3576,-3.6775 -6.691,-5.1048 -1.3334,-1.4274 -2.7694,-2.5952 -3.1912,-2.5952 -0.4217,0 -1.1443,1.9089 -1.6057,4.2421 -0.8919,4.5098 -3.1425,5.9459 -5.8268,3.718 -1.1208,-0.9301 -1.452,-3.9256 -1.452,-13.1322 0,-16.1059 -1.9731,-19.8279 -10.5112,-19.8279 -2.6928,0 -4.4049,0.7622 -6.5657,2.9231 -2.9098,2.9098 -2.9231,2.9782 -2.9231,15.0657 0,12.6589 -0.8192,16.0112 -3.9127,16.0112 -3.296,0 -3.9134,-2.2993 -4.2529,-15.8397 -0.3309,-13.1973 -0.3641,-13.3637 -3.1402,-15.7493 -4.1184,-3.539 -9.9364,-3.3226 -13.7711,0.5121 -2.9098,2.9098 -2.9231,2.9782 -2.9231,15.0657 0,12.5757 -0.8229,16.0112 -3.8352,16.0112 -3.7997,0 -4.1648,-1.8085 -4.1648,-20.6286 0,-15.5111 0.2428,-18.4714 1.6289,-19.8575 1.0002,-1.0001 2.2548,-1.3448 3.25,-0.8929 0.8916,0.4048 2.8586,0.6656 4.3711,0.5797 13.7078,-0.7789 14.3864,-0.7071 18.3958,1.9462 l 3.9494,2.6136 4.4256,-2.6136 c 8.6311,-5.0972 19.8086,-2.7844 24.4408,5.0574 1.9492,3.2997 4.044,3.5879 5.5552,0.7643 1.785,-3.3353 8.8529,-7.8265 13.3868,-8.5064 6.1113,-0.9165 12.1148,1.0526 17.034,5.5871 2.341,2.1578 4.5502,3.6295 4.9094,3.2704 0.3591,-0.3592 0.653,-5.4912 0.653,-11.4046 0,-12.4979 0.3699,-13.9151 3.6317,-13.9151 3.2,0 4.3683,3.2267 4.3683,12.0651 0,3.8142 0.3375,6.9281 0.75,6.9198 0.4125,-0.01 2.55,-0.6635 4.75,-1.4561 2.2,-0.7925 5.5991,-1.4608 7.5537,-1.4849 3.8988,-0.048 13.7983,4.407 14.6345,6.586 0.8916,2.3235 3.3118,1.55 3.3118,-1.0585 0,-2.3747 2.2951,-5.5714 4,-5.5714 0.4714,0 1.5643,0.7071 2.4286,1.5714 1.2597,1.2598 1.5714,4.0332 1.5714,13.9843 0,12.2817 0.031,12.447 2.8977,15.6558 2.3979,2.6838 3.6227,3.243 7.1023,3.243 3.4795,0 4.7044,-0.5592 7.1023,-3.243 2.8671,-3.2088 2.8977,-3.3741 2.8977,-15.6558 0,-9.9511 0.3116,-12.7245 1.5714,-13.9843 1.9883,-1.9883 2.8822,-1.975 4.9305,0.073 1.4383,1.4383 1.6042,4.1162 1.3214,21.3322 l -0.3233,19.6875 -3,4.8402 c -3.8228,6.1677 -9.7679,9.5013 -16.9073,9.4807 -2.801,-0.01 -6.2177,-0.5839 -7.5927,-1.2796 z m -21.6358,-22.0845 c 7.2716,-3.0383 10.1074,-10.506 6.8155,-17.9478 -2.3434,-5.2976 -6.1355,-7.6734 -12.2477,-7.6734 -3.5075,0 -4.782,0.6147 -8.0497,3.8824 -3.4482,3.4481 -3.8819,4.4266 -3.8786,8.75 0,5.9951 2.7935,10.9407 7.266,12.885 4.119,1.7907 6.0107,1.8101 10.0945,0.1038 z m 63.748,21.1141 c -4.0514,-2.0959 -2.4169,-3.2353 4.6414,-3.2353 5.4061,0 7.3766,-0.4495 9.9185,-2.2626 3.4225,-2.4413 6.9849,-10.0829 5.9535,-12.7707 -0.5489,-1.4305 -0.9337,-1.3835 -3.4714,0.4235 -2.8843,2.0538 -10.4511,4.2371 -12.5273,3.6147 -0.6198,-0.1858 -2.3297,-0.6003 -3.7998,-0.9211 -6.5727,-1.4341 -12.8271,-10.2005 -12.8271,-17.9789 0,-5.9991 1.4049,-9.3699 5.7838,-13.8768 5.9812,-6.1559 14.2936,-7.158 22.0234,-2.6548 4.1842,2.4377 5.1928,2.4234 5.1928,-0.073 0,-2.8779 2.8445,-2.4676 3.594,0.5184 0.3476,1.3851 0.4466,10.2726 0.22,19.75 -0.4382,18.32 -1.022,20.8021 -5.9826,25.4339 -5.0798,4.7429 -13.7401,6.6087 -18.7192,4.033 z m 13.8012,-20.464 c 4.2126,-3.0541 7.401,-10.451 6.5855,-15.2781 -0.783,-4.634 -4.3321,-9.3385 -8.7808,-11.639 -5.9631,-3.0836 -14.9276,0.2827 -18.3434,6.8882 -2.1499,4.1574 -1.4376,12.4561 1.4126,16.4589 4.4381,6.2328 13.1979,7.8678 19.1261,3.57 z m -265.1221,8.0157 c -1.5779,-1.7781 -24.2326,-41.6675 -25.4158,-44.7509 -0.5468,-1.4249 0.1391,-1.5391 5.7782,-0.9613 12.1426,1.244 23.296,-3.1559 34.2328,-13.5048 6.654,-6.2963 8.6135,-10.0378 8.6135,-16.4469 v -4.441 l 10.25,-0.4027 c 5.6375,-0.2215 11.0977,-0.7837 12.1337,-1.2493 1.782,-0.801 1.8595,-0.3843 1.4343,7.7161 -0.3689,7.0277 -1.0162,9.7141 -3.6106,14.984 -3.6461,7.4063 -11.566,15.3227 -20.9391,20.9299 -10.7234,6.4149 -16.0368,16.0989 -17.1699,31.2934 -0.6404,8.5879 -2.0919,10.4569 -5.3071,6.8335 z m 293.7996,-2.7677 c -4.4747,-1.5946 -8.1358,-4.8287 -7.1929,-6.3542 0.4089,-0.6616 2.6594,-0.1125 6.2199,1.5175 6.6012,3.0222 12.2291,2.7492 15.9804,-0.7749 4.8996,-4.603 1.5965,-8.844 -8.9449,-11.4844 -8.5474,-2.141 -12.6534,-5.3462 -12.6534,-9.8773 0,-9.2223 13.0386,-13.4577 22.9233,-7.4465 2.6442,1.6081 3.0326,2.2487 2.0683,3.4106 -1.0206,1.2298 -1.7297,1.154 -5.0496,-0.5397 -5.2381,-2.6723 -10.1661,-2.5419 -13.5377,0.3582 -2.1319,1.8339 -2.5691,2.8785 -2.0576,4.9166 0.6672,2.6583 3.3491,3.9914 13.5704,6.7452 2.4295,0.6545 5.7475,2.5203 7.3734,4.1462 2.5038,2.5039 2.8682,3.4983 2.3812,6.499 -0.7308,4.5034 -2.1924,6.2359 -7.1717,8.5009 -4.7593,2.1649 -8.6103,2.2709 -13.9091,0.3828 z m -13.5909,-18.0193 c 0,-17.2204 0.1338,-18.6209 1.75,-18.3096 1.5892,0.306 1.75,1.9879 1.75,18.3096 0,16.3217 -0.1608,18.0036 -1.75,18.3096 -1.6162,0.3113 -1.75,-1.0892 -1.75,-18.3096 z m 0.3358,-28.0672 c -0.7911,-2.0617 1.2825,-4.2145 2.697,-2.8 1.1452,1.1452 0.2811,4.3672 -1.1712,4.3672 -0.5084,0 -1.195,-0.7052 -1.5258,-1.5672 z m -302.3358,-3.4335 c -8.0025,-1.4361 -9.9625,-2.6603 -12.1395,-7.5818 -10.5431,-23.8344 3.0135,-51.2007 28.6745,-57.8846 3.2368,-0.8431 7.0357,-1.5329 8.4418,-1.5329 h 2.5566 l -0.2146,12.75 -0.2146,12.75 -4.063,1.1897 c -5.8521,1.7135 -9.573,4.7116 -11.9554,9.633 -2.5917,5.3537 -2.6573,10.6371 -0.1922,15.4671 2.1933,4.2975 4.256,6.2842 9.0468,8.7138 3.2702,1.6583 3.3459,1.8139 1.5309,3.141 -3.9491,2.8877 -14.7074,4.5686 -21.4713,3.3547 z m 20.9231,-16.9224 c -3.6561,-3.6561 -3.8469,-7.8914 -0.5292,-11.7484 3.4117,-3.9664 9.8005,-3.9664 13.2122,0 7.5847,8.8177 -4.4582,19.9732 -12.683,11.7484 z m 41.324,-17.2845 c -0.5875,-0.7108 -1.3831,-2.9777 -1.768,-5.0376 -0.9551,-5.1111 -5.6505,-11.9086 -10.5907,-15.3322 -2.253,-1.5613 -7.087,-3.5916 -10.7424,-4.5117 -4.1434,-1.043 -6.646,-2.1885 -6.646,-3.042 0,-1.7347 5.1947,-1.4196 11.6778,0.7084 9.9198,3.2561 17.4176,11.3992 19.8565,21.5655 1.2549,5.231 0.317,8.1956 -1.7872,5.6496 z m -10.1461,-3.8497 c -1.7564,-5.8622 -7.7076,-11.4008 -13.9767,-13.0075 -4.916,-1.2599 -6.9081,-2.9352 -3.4903,-2.9352 3.5257,0 9.429,2.4276 12.9389,5.3207 3.6306,2.9927 7.3622,9.508 7.4051,12.9293 0.04,3.1708 -1.6392,1.8243 -2.877,-2.3073 z"
         id="path9262"
         inkscape:connector-curvature="0" />
      <path
         style="fill:#94bc57"
         d="m -2415.8647,1965.621 c -1.6507,-0.8351 -2.5,-2.104 -2.5,-3.7352 0,-2.3573 0.2521,-2.4594 5.5,-2.228 3.025,0.1334 6.9555,-0.2367 8.7344,-0.8224 2.9999,-0.9877 7.2656,-5.1076 7.2656,-7.0173 0,-0.4552 -2.8323,-0.5631 -6.2941,-0.2398 -5.2168,0.4871 -7.0099,0.2226 -10.476,-1.5457 -2.3001,-1.1734 -5.1774,-3.4799 -6.394,-5.1254 -2.7876,-3.7704 -3.8965,-3.7538 -6.7466,0.1012 -4.5566,6.1631 -15.8197,8.7177 -23.7772,5.3928 -3.2359,-1.352 -3.8026,-1.352 -5.2966,0 -3.4997,3.1672 -7.0155,1.099 -7.0155,-4.1269 0,-4.6118 -1.199,-4.7848 -5.0916,-0.7348 -1.8746,1.9505 -4.7584,4.2344 -6.4084,5.0753 -1.65,0.8408 -4.2442,2.693 -5.7648,4.116 l -2.7649,2.5871 -1.4684,-2.0965 c -0.8077,-1.153 -3.3885,-3.2258 -5.7352,-4.6061 -2.3467,-1.3803 -5.3576,-3.6775 -6.691,-5.1048 -1.3334,-1.4274 -2.7694,-2.5952 -3.1912,-2.5952 -0.4217,0 -1.1443,1.9089 -1.6057,4.2421 -0.8919,4.5098 -3.1425,5.9459 -5.8268,3.718 -1.1208,-0.9301 -1.452,-3.9256 -1.452,-13.1322 0,-16.1059 -1.9731,-19.8279 -10.5112,-19.8279 -2.6928,0 -4.4049,0.7622 -6.5657,2.9231 -2.9098,2.9098 -2.9231,2.9782 -2.9231,15.0657 0,12.6589 -0.8192,16.0112 -3.9127,16.0112 -3.296,0 -3.9134,-2.2993 -4.2529,-15.8397 -0.3309,-13.1973 -0.3641,-13.3637 -3.1402,-15.7493 -4.1184,-3.539 -9.9364,-3.3226 -13.7711,0.5121 -2.9098,2.9098 -2.9231,2.9782 -2.9231,15.0657 0,12.5757 -0.8229,16.0112 -3.8352,16.0112 -3.7997,0 -4.1648,-1.8085 -4.1648,-20.6286 0,-15.5111 0.2428,-18.4714 1.6289,-19.8575 1.0002,-1.0001 2.2548,-1.3448 3.25,-0.8929 0.8916,0.4048 2.8586,0.6656 4.3711,0.5797 13.7078,-0.7789 14.3864,-0.7071 18.3958,1.9462 l 3.9494,2.6136 4.4256,-2.6136 c 8.6311,-5.0972 19.8086,-2.7844 24.4408,5.0574 1.9492,3.2997 4.044,3.5879 5.5552,0.7643 1.785,-3.3353 8.8529,-7.8265 13.3868,-8.5064 6.1113,-0.9165 12.1148,1.0526 17.034,5.5871 2.341,2.1578 4.5502,3.6295 4.9094,3.2704 0.3591,-0.3592 0.653,-5.4912 0.653,-11.4046 0,-12.4979 0.3699,-13.9151 3.6317,-13.9151 3.2,0 4.3683,3.2267 4.3683,12.0651 0,3.8142 0.3375,6.9281 0.75,6.9198 0.4125,-0.01 2.55,-0.6635 4.75,-1.4561 2.2,-0.7925 5.5991,-1.4608 7.5537,-1.4849 3.8988,-0.048 13.7983,4.407 14.6345,6.586 0.8916,2.3235 3.3118,1.55 3.3118,-1.0585 0,-2.3747 2.2951,-5.5714 4,-5.5714 0.4714,0 1.5643,0.7071 2.4286,1.5714 1.2597,1.2598 1.5714,4.0332 1.5714,13.9843 0,12.2817 0.031,12.447 2.8977,15.6558 2.3979,2.6838 3.6227,3.243 7.1023,3.243 3.4795,0 4.7044,-0.5592 7.1023,-3.243 2.8671,-3.2088 2.8977,-3.3741 2.8977,-15.6558 0,-9.9511 0.3116,-12.7245 1.5714,-13.9843 1.9883,-1.9883 2.8822,-1.975 4.9305,0.073 1.4383,1.4383 1.6042,4.1162 1.3214,21.3322 l -0.3233,19.6875 -3,4.8402 c -3.8228,6.1677 -9.7679,9.5013 -16.9073,9.4807 -2.801,-0.01 -6.2177,-0.5839 -7.5927,-1.2796 z m -21.6358,-22.0845 c 7.2716,-3.0383 10.1074,-10.506 6.8155,-17.9478 -2.3434,-5.2976 -6.1355,-7.6734 -12.2477,-7.6734 -3.5075,0 -4.782,0.6147 -8.0497,3.8824 -3.4482,3.4481 -3.8819,4.4266 -3.8786,8.75 0,5.9951 2.7935,10.9407 7.266,12.885 4.119,1.7907 6.0107,1.8101 10.0945,0.1038 z m -187.5729,8.6658 c -1.5779,-1.7781 -24.2326,-41.6675 -25.4158,-44.7509 -0.5468,-1.4249 0.1391,-1.5391 5.7782,-0.9613 12.1426,1.244 23.296,-3.1559 34.2328,-13.5048 6.654,-6.2963 8.6135,-10.0378 8.6135,-16.4469 v -4.441 l 10.25,-0.4027 c 5.6375,-0.2215 11.0977,-0.7837 12.1337,-1.2493 1.782,-0.801 1.8595,-0.3843 1.4343,7.7161 -0.3689,7.0277 -1.0162,9.7141 -3.6106,14.984 -3.6461,7.4063 -11.566,15.3227 -20.9391,20.9299 -10.7234,6.4149 -16.0368,16.0989 -17.1699,31.2934 -0.6404,8.5879 -2.0919,10.4569 -5.3071,6.8335 z m -21.7913,-52.2877 c -8.0025,-1.4361 -9.9625,-2.6603 -12.1395,-7.5818 -10.5431,-23.8344 3.0135,-51.2007 28.6745,-57.8846 3.2368,-0.8431 7.0357,-1.5329 8.4418,-1.5329 h 2.5566 l -0.2146,12.75 -0.2146,12.75 -4.063,1.1897 c -5.8521,1.7135 -9.573,4.7116 -11.9554,9.633 -2.5917,5.3537 -2.6573,10.6371 -0.1922,15.4671 2.1933,4.2975 4.256,6.2842 9.0468,8.7138 3.2702,1.6583 3.3459,1.8139 1.5309,3.141 -3.9491,2.8877 -14.7074,4.5686 -21.4713,3.3547 z m 20.9231,-16.9224 c -3.6561,-3.6561 -3.8469,-7.8914 -0.5292,-11.7484 3.4117,-3.9664 9.8005,-3.9664 13.2122,0 7.5847,8.8177 -4.4582,19.9732 -12.683,11.7484 z m 41.324,-17.2845 c -0.5875,-0.7108 -1.3831,-2.9777 -1.768,-5.0376 -0.9551,-5.1111 -5.6505,-11.9086 -10.5907,-15.3322 -2.253,-1.5613 -7.087,-3.5916 -10.7424,-4.5117 -4.1434,-1.043 -6.646,-2.1885 -6.646,-3.042 0,-1.7347 5.1947,-1.4196 11.6778,0.7084 9.9198,3.2561 17.4176,11.3992 19.8565,21.5655 1.2549,5.231 0.317,8.1956 -1.7872,5.6496 z m -10.1461,-3.8497 c -1.7564,-5.8622 -7.7076,-11.4008 -13.9767,-13.0075 -4.916,-1.2599 -6.9081,-2.9352 -3.4903,-2.9352 3.5257,0 9.429,2.4276 12.9389,5.3207 3.6306,2.9927 7.3622,9.508 7.4051,12.9293 0.04,3.1708 -1.6392,1.8243 -2.877,-2.3073 z"
         id="path9260"
         inkscape:connector-curvature="0" />
      <path
         style="fill:#556b9b"
         d="m -2415.8647,1965.621 c -1.6507,-0.8351 -2.5,-2.104 -2.5,-3.7352 0,-2.3573 0.2521,-2.4594 5.5,-2.228 3.025,0.1334 6.9555,-0.2367 8.7344,-0.8224 2.9999,-0.9877 7.2656,-5.1076 7.2656,-7.0173 0,-0.4552 -2.8323,-0.5631 -6.2941,-0.2398 -5.2168,0.4871 -7.0099,0.2226 -10.476,-1.5457 -2.3001,-1.1734 -5.1774,-3.4799 -6.394,-5.1254 -2.7876,-3.7704 -3.8965,-3.7538 -6.7466,0.1012 -4.5566,6.1631 -15.8197,8.7177 -23.7772,5.3928 -3.2359,-1.352 -3.8026,-1.352 -5.2966,0 -3.4997,3.1672 -7.0155,1.099 -7.0155,-4.1269 0,-4.6118 -1.199,-4.7848 -5.0916,-0.7348 -1.8746,1.9505 -4.7584,4.2344 -6.4084,5.0753 -1.65,0.8408 -4.2442,2.693 -5.7648,4.116 l -2.7649,2.5871 -1.4684,-2.0965 c -0.8077,-1.153 -3.3885,-3.2258 -5.7352,-4.6061 -2.3467,-1.3803 -5.3576,-3.6775 -6.691,-5.1048 -1.3334,-1.4274 -2.7694,-2.5952 -3.1912,-2.5952 -0.4217,0 -1.1443,1.9089 -1.6057,4.2421 -0.8919,4.5098 -3.1425,5.9459 -5.8268,3.718 -1.1208,-0.9301 -1.452,-3.9256 -1.452,-13.1322 0,-16.1059 -1.9731,-19.8279 -10.5112,-19.8279 -2.6928,0 -4.4049,0.7622 -6.5657,2.9231 -2.9098,2.9098 -2.9231,2.9782 -2.9231,15.0657 0,12.6589 -0.8192,16.0112 -3.9127,16.0112 -3.296,0 -3.9134,-2.2993 -4.2529,-15.8397 -0.3309,-13.1973 -0.3641,-13.3637 -3.1402,-15.7493 -4.1184,-3.539 -9.9364,-3.3226 -13.7711,0.5121 -2.9098,2.9098 -2.9231,2.9782 -2.9231,15.0657 0,12.5757 -0.8229,16.0112 -3.8352,16.0112 -3.7997,0 -4.1648,-1.8085 -4.1648,-20.6286 0,-15.5111 0.2428,-18.4714 1.6289,-19.8575 1.0002,-1.0001 2.2548,-1.3448 3.25,-0.8929 0.8916,0.4048 2.8586,0.6656 4.3711,0.5797 13.7078,-0.7789 14.3864,-0.7071 18.3958,1.9462 l 3.9494,2.6136 4.4256,-2.6136 c 8.6311,-5.0972 19.8086,-2.7844 24.4408,5.0574 1.9492,3.2997 4.044,3.5879 5.5552,0.7643 1.785,-3.3353 8.8529,-7.8265 13.3868,-8.5064 6.1113,-0.9165 12.1148,1.0526 17.034,5.5871 2.341,2.1578 4.5502,3.6295 4.9094,3.2704 0.3591,-0.3592 0.653,-5.4912 0.653,-11.4046 0,-12.4979 0.3699,-13.9151 3.6317,-13.9151 3.2,0 4.3683,3.2267 4.3683,12.0651 0,3.8142 0.3375,6.9281 0.75,6.9198 0.4125,-0.01 2.55,-0.6635 4.75,-1.4561 2.2,-0.7925 5.5991,-1.4608 7.5537,-1.4849 3.8988,-0.048 13.7983,4.407 14.6345,6.586 0.8916,2.3235 3.3118,1.55 3.3118,-1.0585 0,-2.3747 2.2951,-5.5714 4,-5.5714 0.4714,0 1.5643,0.7071 2.4286,1.5714 1.2597,1.2598 1.5714,4.0332 1.5714,13.9843 0,12.2817 0.031,12.447 2.8977,15.6558 2.3979,2.6838 3.6227,3.243 7.1023,3.243 3.4795,0 4.7044,-0.5592 7.1023,-3.243 2.8671,-3.2088 2.8977,-3.3741 2.8977,-15.6558 0,-9.9511 0.3116,-12.7245 1.5714,-13.9843 1.9883,-1.9883 2.8822,-1.975 4.9305,0.073 1.4383,1.4383 1.6042,4.1162 1.3214,21.3322 l -0.3233,19.6875 -3,4.8402 c -3.8228,6.1677 -9.7679,9.5013 -16.9073,9.4807 -2.801,-0.01 -6.2177,-0.5839 -7.5927,-1.2796 z m -21.6358,-22.0845 c 7.2716,-3.0383 10.1074,-10.506 6.8155,-17.9478 -2.3434,-5.2976 -6.1355,-7.6734 -12.2477,-7.6734 -3.5075,0 -4.782,0.6147 -8.0497,3.8824 -3.4482,3.4481 -3.8819,4.4266 -3.8786,8.75 0,5.9951 2.7935,10.9407 7.266,12.885 4.119,1.7907 6.0107,1.8101 10.0945,0.1038 z m -39.463,-1.0701 c 8.8664,-4.585 8.4337,-18.7916 -0.7045,-23.128 -7.5676,-3.5911 -16.1967,2.3553 -16.1967,11.1614 0,10.4012 8.4114,16.3568 16.9012,11.9666 z m -148.9781,-59.4742 c -3.6561,-3.6561 -3.8469,-7.8914 -0.5292,-11.7484 3.4117,-3.9664 9.8005,-3.9664 13.2122,0 7.5847,8.8177 -4.4582,19.9732 -12.683,11.7484 z m 41.324,-17.2845 c -0.5875,-0.7108 -1.3831,-2.9777 -1.768,-5.0376 -0.9551,-5.1111 -5.6505,-11.9086 -10.5907,-15.3322 -2.253,-1.5613 -7.087,-3.5916 -10.7424,-4.5117 -4.1434,-1.043 -6.646,-2.1885 -6.646,-3.042 0,-1.7347 5.1947,-1.4196 11.6778,0.7084 9.9198,3.2561 17.4176,11.3992 19.8565,21.5655 1.2549,5.231 0.317,8.1956 -1.7872,5.6496 z m -10.1461,-3.8497 c -1.7564,-5.8622 -7.7076,-11.4008 -13.9767,-13.0075 -4.916,-1.2599 -6.9081,-2.9352 -3.4903,-2.9352 3.5257,0 9.429,2.4276 12.9389,5.3207 3.6306,2.9927 7.3622,9.508 7.4051,12.9293 0.04,3.1708 -1.6392,1.8243 -2.877,-2.3073 z"
         id="path9258"
         inkscape:connector-curvature="0" />
      <path
         style="fill:#3d5d76"
         d="m -2415.6147,1964.8841 c -1.3462,-0.5411 -2.25,-1.7601 -2.25,-3.0348 0,-2.011 0.3312,-2.0919 5.9132,-1.4441 6.8066,0.79 11.8771,-0.9947 14.5901,-5.1353 2.0738,-3.165 1.5525,-5.9486 -1.0416,-5.563 -9.6666,1.4369 -10.4276,1.4029 -14.6433,-0.6544 -2.3751,-1.1592 -5.3889,-3.6892 -6.6973,-5.6224 -1.3084,-1.9331 -2.8834,-3.5148 -3.5,-3.5148 -0.6166,1e-4 -2.4158,1.6226 -3.9981,3.6058 -5.4364,6.8133 -13.8786,8.9253 -22.8394,5.7137 -4.4834,-1.6069 -4.8149,-1.6012 -6.7127,0.1163 -3.1225,2.8259 -5.0709,1.3484 -5.0709,-3.8454 0,-6.0418 -1.6625,-6.7321 -5.2983,-2.2 -1.6362,2.0396 -4.8259,4.6369 -7.0883,5.7718 -2.2624,1.1349 -5.0855,2.9532 -6.2735,4.0405 -2.1529,1.9704 -2.167,1.9702 -4.2085,-0.071 -1.1266,-1.1266 -3.8247,-2.9546 -5.9957,-4.0621 -2.1711,-1.1076 -5.066,-3.4431 -6.4332,-5.1901 -3.3402,-4.268 -5.7025,-3.3894 -5.7025,2.1209 0,2.8027 -0.4965,4.2533 -1.6009,4.6771 -2.7042,1.0377 -3.3679,-1.7125 -3.3838,-14.0228 -0.017,-13.056 -1.1887,-16.7091 -5.9559,-18.567 -5.6901,-2.2175 -9.6342,-1.6664 -13.1363,1.8358 -2.9098,2.9098 -2.9231,2.9782 -2.9231,15.0657 0,12.085 -0.8407,16.0112 -3.4282,16.0112 -2.1517,0 -2.5718,-2.3973 -2.5718,-14.6775 0,-12.148 -0.9806,-15.5803 -5.2052,-18.2186 -2.8238,-1.7635 -9.366,-1.6149 -12.2553,0.2783 -4.1457,2.7163 -4.9133,5.4306 -5.3584,18.9455 -0.3334,10.1254 -0.7343,12.9473 -1.9027,13.3957 -0.8141,0.3124 -1.8836,-0.06 -2.3765,-0.8277 -0.493,-0.7676 -0.7851,-9.4957 -0.6491,-19.3957 l 0.2472,-18 4,0.2786 c 2.2,0.1532 5.8376,-0.2218 8.0836,-0.8334 4.8593,-1.3232 10.7178,-0.069 14.8454,3.1776 l 2.69,2.116 6.3493,-3.2227 c 5.2435,-2.6615 7.0328,-3.1072 10.2743,-2.5596 5.3578,0.9052 9.9312,3.8763 12.3952,8.0526 1.1329,1.92 2.5346,3.4909 3.115,3.4909 0.5805,0 2.6484,-1.8611 4.5955,-4.1358 8.5349,-9.9712 19.1095,-10.1955 28.8976,-0.6127 2.7475,2.6899 4.5886,3.814 5.2173,3.1853 0.5343,-0.5343 1.0987,-6.5887 1.2541,-13.4542 0.2655,-11.7217 0.4046,-12.4826 2.2827,-12.4826 1.8039,0 2.049,0.8333 2.5,8.5 0.275,4.675 0.8556,9.0488 1.2902,9.7196 0.6035,0.9313 1.9711,0.7541 5.787,-0.75 8.0736,-3.1823 13.99,-2.1718 20.6471,3.5264 4.9516,4.2383 6.2757,4.385 6.2757,0.6951 0,-1.5449 0.675,-3.6823 1.5,-4.75 1.4848,-1.9215 1.5152,-1.9215 3,0 1.1435,1.4798 1.5,4.8135 1.5,14.0275 0,13.2426 0.6789,15.2798 6.011,18.0371 3.6648,1.8951 6.3248,1.8891 10.0217,-0.023 4.9095,-2.5388 5.9673,-5.962 5.9673,-19.311 0,-9.7387 0.2951,-12.1721 1.6082,-13.2619 1.3664,-1.134 1.8175,-1.0485 3,0.5687 1.7354,2.3734 1.9587,30.7791 0.3027,38.5011 -1.3091,6.1042 -4.9017,10.6567 -10.3695,13.1404 -4.2869,1.9472 -11.5546,2.3505 -15.2914,0.8485 z m -18.4192,-21.8483 c 1.6896,-1.2031 3.7591,-4.0982 4.7107,-6.59 2.3622,-6.1854 1.3075,-10.9168 -3.5068,-15.7311 -3.3657,-3.3657 -4.3551,-3.7977 -8.6671,-3.7847 -6.0345,0.018 -9.1497,1.5383 -12.0876,5.8978 -3.1098,4.6145 -3.1676,12.6894 -0.1187,16.5654 5.3203,6.7636 13.2294,8.2283 19.6695,3.6426 z m -42.9296,-0.5694 c 8.8664,-4.585 8.4337,-18.7916 -0.7045,-23.128 -7.5676,-3.5911 -16.1967,2.3553 -16.1967,11.1614 0,10.4012 8.4114,16.3568 16.9012,11.9666 z m -147.7005,-59.5788 c -6.4116,-5.9733 -0.6214,-15.7579 7.624,-12.8835 5.2838,1.8419 6.7272,8.4502 2.7208,12.4567 -3.0141,3.014 -7.3747,3.194 -10.3448,0.4268 z m 39.9355,-20.7332 c -0.2231,-3.7034 -4.0113,-10.7809 -7.7965,-14.5661 -3.8904,-3.8904 -8.4605,-6.3483 -15.3397,-8.2501 -2.5567,-0.7068 -3.5446,-1.2827 -2.2875,-1.3335 3.7834,-0.1529 12.7549,3.7629 17.0559,7.4444 4.6855,4.0106 9.6091,13.1669 8.9474,16.6391 l -0.4434,2.3271 z"
         id="path9256"
         inkscape:connector-curvature="0" />
      <path
         style="fill:#2a4883"
         d="m -2415.1685,1964.7351 c -1.7998,-0.6563 -2.6856,-1.6127 -2.4736,-2.6711 0.2728,-1.3615 1.394,-1.5901 6.4366,-1.3124 8.9137,0.4909 15.3408,-3.5138 15.3408,-9.5588 0,-2.6229 -0.4134,-2.6942 -6.3755,-1.0996 -5.9676,1.5961 -12.4353,-0.8154 -16.8198,-6.2713 -1.7267,-2.1486 -3.5217,-3.9066 -3.9889,-3.9066 -0.4672,0 -2.7544,1.978 -5.0826,4.3955 -6.2375,6.4767 -12.4756,7.9054 -21.6209,4.9518 -4.8383,-1.5626 -5.2252,-1.5551 -7.0961,0.138 -2.9039,2.628 -5.0162,0.4771 -5.0162,-5.1077 0,-5.3499 -1.8845,-5.8119 -5.2201,-1.2799 -1.2539,1.7038 -4.3049,4.2536 -6.7799,5.6662 -2.475,1.4126 -5.445,3.4086 -6.5999,4.4356 -1.9178,1.7052 -2.2155,1.7278 -3.4331,0.2607 -0.7333,-0.8835 -2.9667,-2.4397 -4.9632,-3.4582 -1.9965,-1.0186 -5.2528,-3.5227 -7.2363,-5.5649 -4.5226,-4.6562 -6.7675,-4.1678 -6.7675,1.4725 0,4.5778 -1.6956,6.2271 -3.6517,3.552 -0.9523,-1.3023 -1.3483,-5.3403 -1.3483,-13.7484 0,-13.8155 -1.2673,-16.8142 -7.9526,-18.8171 -3.2836,-0.9838 -4.4199,-0.8768 -7.6997,0.7249 -6.0052,2.9326 -7.3443,6.6823 -7.3462,20.57 0,12.0392 -0.9505,14.9668 -3.6532,11.2706 -0.9523,-1.3023 -1.3483,-5.3403 -1.3483,-13.7484 0,-13.8155 -1.2673,-16.8142 -7.9526,-18.8171 -3.2836,-0.9838 -4.4199,-0.8768 -7.6997,0.7249 -6.0052,2.9326 -7.3443,6.6823 -7.3462,20.57 0,12.0392 -0.9505,14.9668 -3.6532,11.2706 -0.9999,-1.3674 -1.3483,-6.0367 -1.3483,-18.0709 0,-8.9249 0.2731,-16.9389 0.607,-17.8089 0.7084,-1.846 3.4918,-2.083 5.1374,-0.4374 0.8591,0.8591 1.909,0.8276 4.2126,-0.1266 4.9576,-2.0535 11.8067,-1.4399 16.1718,1.4487 4.7129,3.1189 4.9187,3.1196 9.4663,0.033 7.2381,-4.9119 18.3875,-2.656 23.0022,4.6542 1.3353,2.1152 3.0218,3.8458 3.7479,3.8458 0.726,0 2.7658,-1.799 4.5327,-3.9978 4.1705,-5.1895 8.3805,-7.2879 14.6221,-7.2879 6.1766,0 9.8597,1.8124 14.737,7.252 2.0554,2.2923 4.1929,3.8861 4.75,3.5417 0.5929,-0.3664 1.0193,-5.6814 1.0283,-12.817 0.016,-12.6438 0.6675,-15.4105 3.3838,-14.3681 1.2922,0.4959 1.6009,2.2355 1.6009,9.0233 0,10.1392 1.0628,11.7069 6.1522,9.0751 5.1976,-2.6878 12.5976,-2.344 18.0262,0.8373 2.523,1.4786 4.8509,3.3753 5.173,4.2149 0.7689,2.0035 4.2663,1.9651 5.0416,-0.055 0.3339,-0.87 0.607,-2.67 0.607,-4 0,-1.7515 0.5514,-2.4182 2,-2.4182 1.8756,0 2.0004,0.6685 2.0056,10.75 0.01,17.6533 2.7327,22.75 12.157,22.75 4.3853,0 5.3609,-0.4023 7.9194,-3.2658 2.8776,-3.2206 2.918,-3.4304 2.918,-15.1682 0,-13.2634 0.3717,-15.066 3.107,-15.066 1.7944,0 1.893,1.0442 1.893,20.0398 0,17.6916 -0.2219,20.4746 -1.8936,23.75 -1.0415,2.0406 -2.7454,4.4805 -3.7866,5.4221 -4.7232,4.2712 -13.4194,5.8701 -19.6236,3.6079 z m -58.0036,-23.0457 c 10.5483,-10.5483 1.2203,-28.5205 -12.8381,-24.7349 -4.0043,1.0782 -8.4766,5.6068 -9.4781,9.5974 -1.2167,4.8476 0.2412,11.3528 3.2593,14.5433 3.7931,4.0098 5.996,4.8759 11.2388,4.419 3.3635,-0.2932 5.1705,-1.1772 7.8181,-3.8248 z m 38.4095,1.956 c 9.7198,-6.4933 8.7712,-21.2445 -1.663,-25.8601 -5.9941,-2.6514 -10.7876,-1.7173 -15.5594,3.032 -5.0394,5.0157 -5.9146,10.4413 -2.7223,16.8759 3.9298,7.9214 12.962,10.6169 19.9447,5.9522 z m -189.7033,-61.0635 c -5.4811,-4.7146 -2.2546,-12.6666 5.1394,-12.6666 3.3641,0 7.4618,3.6178 7.4618,6.5878 0,2.6442 -2.2799,6.2187 -4.6573,7.3019 -3.5244,1.6059 -4.9016,1.3938 -7.9439,-1.2231 z"
         id="path9254"
         inkscape:connector-curvature="0" />
    </g>
  </g>
</svg>
