<?xml version="1.0" encoding="UTF-8" standalone="no"?>
<svg
   xmlns:dc="http://purl.org/dc/elements/1.1/"
   xmlns:cc="http://creativecommons.org/ns#"
   xmlns:rdf="http://www.w3.org/1999/02/22-rdf-syntax-ns#"
   xmlns:svg="http://www.w3.org/2000/svg"
   xmlns="http://www.w3.org/2000/svg"
   xmlns:sodipodi="http://sodipodi.sourceforge.net/DTD/sodipodi-0.dtd"
   xmlns:inkscape="http://www.inkscape.org/namespaces/inkscape"
   width="312pt"
   height="76pt"
   viewBox="0 0 312.00001 76"
   version="1.2"
   id="svg47"
   sodipodi:docname="Sinergise-base_logo_monochrome.svg"
   inkscape:version="0.92.5 (2060ec1f9f, 2020-04-08)">
  <metadata
     id="metadata51">
    <rdf:RDF>
      <cc:Work
         rdf:about="">
        <dc:format>image/svg+xml</dc:format>
        <dc:type
           rdf:resource="http://purl.org/dc/dcmitype/StillImage" />
        <dc:title></dc:title>
      </cc:Work>
    </rdf:RDF>
  </metadata>
  <sodipodi:namedview
     pagecolor="#17a0c5"
     bordercolor="#666666"
     borderopacity="1"
     objecttolerance="10"
     gridtolerance="10"
     guidetolerance="10"
     inkscape:pageopacity="1"
     inkscape:pageshadow="2"
     inkscape:window-width="1055"
     inkscape:window-height="743"
     id="namedview49"
     showgrid="false"
     inkscape:zoom="1.55"
     inkscape:cx="209.13784"
     inkscape:cy="49.847666"
     inkscape:window-x="332"
     inkscape:window-y="20"
     inkscape:window-maximized="0"
     inkscape:current-layer="svg47" />
  <defs
     id="defs14">
    <clipPath
       id="clip1">
      <path
         d="m 294,25 h 13.30859 V 51 H 294 Z m 0,0"
         id="path2"
         inkscape:connector-curvature="0" />
    </clipPath>
    <clipPath
       id="clip2">
      <path
         d="M 0,0 H 75 V 74.773438 H 0 Z m 0,0"
         id="path5"
         inkscape:connector-curvature="0" />
    </clipPath>
    <clipPath
       id="clip3">
      <path
         d="M 0,0 H 75 V 74.773438 H 0 Z m 0,0"
         id="path8"
         inkscape:connector-curvature="0" />
    </clipPath>
    <clipPath
       id="clip4">
      <path
         d="m 37.3125,0.00390625 c -0.09375,0 -0.136719,0 -0.136719,0 -12.855469,0 -24.53125,6.84765575 -31.105469,16.70703175 -4.324218,6.441406 -5.332031,12.375 -5.332031,12.375 C 0.125,32.476562 0,37.289062 2.71875,38.925781 6.898438,41.59375 13.003906,38.136719 16.34375,34.65625 21.382812,29.40625 25.015625,24.546875 30.285156,19.058594 35.742188,13.359375 44.105469,7.980469 52.191406,10.25 41.570312,10.5625 33.484375,19.777344 27.296875,27.457031 21.023438,35.246094 9.6875,54.113281 0.015625,41.875 1.394531,56.226562 14.8125,62.9375 24.511719,51.464844 c 7.0625,-8.375 10.347656,-20.144532 17.324219,-28.410156 5.1875,-6.144532 12.597656,-12.703126 24.792968,-8.5625 -6.828125,-8.675782 -20.3125,-10.976563 -31.164062,-6.640626 0,0 -7.039063,2.578126 -14.144532,10.605469 -5.296874,5.964844 -6.640624,7.203125 -8.585937,7.144531 l -0.273437,-0.04687 C 9.328125,24.511719 10.921875,20.140625 12.160156,18.253906 22.5,2.359375 41.929688,0.378906 54.554688,4.335938 46.824219,0.351562 39.476562,0.0195312 37.621094,0.00390625 Z M 49.742188,23.304688 c -7.0625,8.371093 -10.347657,20.148437 -17.324219,28.40625 -5.1875,6.148437 -12.597657,12.714843 -24.789063,8.570312 6.824219,8.667969 20.308594,10.980469 31.164063,6.636719 0,0 7.03125,-2.574219 14.140625,-10.605469 5.296875,-5.96875 6.640625,-7.199219 8.585937,-7.144531 l 0.277344,0.04687 c 3.128906,1.042968 1.539063,5.414062 0.296875,7.300781 -10.339844,15.894531 -29.769531,17.871094 -42.394531,13.917969 7.785156,4.003906 15.171875,4.324218 16.96875,4.335937 h 0.265625 c 0.09375,0 0.144531,-0.0039 0.144531,-0.0039 12.851563,0 24.535156,-6.851563 31.101563,-16.703125 4.332031,-6.445312 5.332031,-12.382812 5.332031,-12.382812 0.617187,-3.386719 0.742187,-8.207032 -1.972657,-9.835938 -4.1875,-2.664062 -10.285156,0.785156 -13.632812,4.269531 C 52.871094,45.367188 49.234375,50.21875 43.96875,55.714844 38.515625,61.410156 30.148438,66.785156 22.0625,64.515625 32.675781,64.210938 40.765625,54.992188 46.957031,47.3125 53.230469,39.527344 64.5625,20.65625 74.238281,32.890625 73.339844,23.585938 67.378906,17.488281 60.65625,17.488281 c -3.640625,0 -7.503906,1.785157 -10.914062,5.816407"
         id="path11"
         inkscape:connector-curvature="0" />
    </clipPath>
  </defs>
  <g
     id="surface732"
     transform="translate(2.0322581,0.74462993)"
     style="fill:#ffffff">
    <g
       clip-path="url(#clip1)"
       id="g18"
       style="clip-rule:nonzero;fill:#ffffff">
      <path
         style="fill:#ffffff;fill-opacity:1;fill-rule:nonzero;stroke:none"
         d="M 296.35156,48.621094 V 38.179688 h 9.80078 v -1.714844 h -9.80078 v -9.128906 h 10.37891 v -1.71875 h -12.35156 v 24.722656 h 12.92968 v -1.71875 z m 0,0"
         id="path16"
         inkscape:connector-curvature="0" />
    </g>
    <path
       style="fill:#ffffff;fill-opacity:1;fill-rule:nonzero;stroke:none"
       d="m 275.77344,36.621094 c -3.69532,-1.449219 -5.00782,-2.847656 -5.00782,-5.359375 0,-1.605469 1.09375,-4.328125 5.16797,-4.328125 1.96875,0 3.51563,0.613281 4.23828,1.136718 l 0.13672,0.09766 0.76563,-1.703125 -0.0977,-0.06641 c -0.875,-0.574219 -2.6289,-1.183594 -4.93359,-1.183594 -4.19531,0 -7.24219,2.664062 -7.24219,6.339844 0,3.167968 2.03125,5.347656 6.40234,6.875 3.48047,1.367187 4.84375,2.933593 4.84375,5.597656 0,3.011718 -2.2539,4.953125 -5.74609,4.953125 -1.86719,0 -3.79687,-0.585938 -5.29297,-1.605469 l -0.13281,-0.09375 -0.76563,1.691406 0.0899,0.06641 c 1.32031,0.976563 3.80859,1.695313 5.92187,1.695313 5.45313,0 7.89844,-3.457031 7.89844,-6.882813 0,-3.902343 -2.5,-5.710937 -6.24609,-7.230468"
       id="path20"
       inkscape:connector-curvature="0" />
    <path
       style="fill:#ffffff;fill-opacity:1;fill-rule:nonzero;stroke:none"
       d="m 253.99219,25.617188 v 24.722656 h 1.97656 V 25.617188 Z m 0,0"
       id="path22"
       inkscape:connector-curvature="0" />
    <path
       style="fill:#ffffff;fill-opacity:1;fill-rule:nonzero;stroke:none"
       d="m 233.52344,39.628906 h 5.70312 v 8.417969 c -0.62109,0.308594 -2.04687,0.792969 -4.98437,0.792969 -6.40625,0 -10.38672,-4.164063 -10.38672,-10.863282 0,-6.703124 4.11719,-10.859374 10.74609,-10.859374 2.04297,0 3.73047,0.332031 5.16797,1.039062 l 0.13672,0.0625 0.64062,-1.710938 -0.11718,-0.04297 c -0.39453,-0.1875 -2.54297,-1.105469 -5.75391,-1.105469 -8.88672,0 -12.87109,6.371094 -12.87109,12.683594 0,3.796875 1.23828,7.171875 3.3789,9.277343 2.26563,2.203126 5.13672,3.269532 8.77344,3.269532 3.36719,0 5.93359,-0.851563 7.15625,-1.351563 l 0.0859,-0.03516 v -11.2539 h -7.67578 z m 0,0"
       id="path24"
       inkscape:connector-curvature="0" />
    <path
       style="fill:#ffffff;fill-opacity:1;fill-rule:nonzero;stroke:none"
       d="M 199.11328,37.441406 V 27.417969 c 0.40625,-0.08984 1.54688,-0.300781 3.38672,-0.300781 2.94922,0 6.46094,0.886718 6.46094,5.128906 0,1.542968 -0.57032,2.84375 -1.65235,3.765625 -1.09375,0.9375 -2.63281,1.429687 -4.45312,1.429687 z m 12.64453,12.695313 c -0.47265,-0.917969 -0.91406,-2.507813 -1.80469,-6.566407 -0.59375,-2.792968 -1.83984,-4.53125 -3.68359,-5.199218 3.02734,-1.117188 4.70703,-3.375 4.70703,-6.417969 0,-1.738281 -0.66015,-3.402344 -1.75,-4.453125 -1.50781,-1.4375 -3.5664,-2.0625 -6.69922,-2.0625 -1.79297,0 -3.86718,0.195312 -5.28515,0.503906 l -0.10547,0.02344 v 24.375 h 1.97656 v -11.21094 h 3.67578 c 3.06641,0.136719 4.6211,1.625 5.34766,5.144532 0.69531,3.277343 1.22265,5.292968 1.57031,5.988281 l 0.0391,0.07813 h 2.11328 z m 0,0"
       id="path26"
       inkscape:connector-curvature="0" />
    <path
       style="fill:#ffffff;fill-opacity:1;fill-rule:nonzero;stroke:none"
       d="m 174.25391,38.179688 h 9.80078 v -1.714844 h -9.80078 v -9.128906 h 10.3789 v -1.71875 h -12.35156 v 24.71875 h 12.93359 v -1.71875 h -10.96093 z m 0,0"
       id="path28"
       inkscape:connector-curvature="0" />
    <path
       style="fill:#ffffff;fill-opacity:1;fill-rule:nonzero;stroke:none"
       d="m 156.71484,25.617188 v 12.285156 c 0,3.914062 0.0508,6.527344 0.26172,9.527344 -1.1289,-2.175782 -2.47265,-4.359376 -4.36719,-7.316407 l -9.58593,-14.496093 h -1.83985 v 24.722656 h 1.9375 V 37.828125 c 0,-3.789063 -0.0352,-6.457031 -0.19531,-9.34375 1.18359,2.28125 2.68359,4.644531 4.29297,7.15625 l 0.26562,0.410156 9.36719,14.289063 h 1.83985 V 25.617188 Z m 0,0"
       id="path30"
       inkscape:connector-curvature="0" />
    <path
       style="fill:#ffffff;fill-opacity:1;fill-rule:nonzero;stroke:none"
       d="m 125.58203,25.617188 v 24.722656 h 1.97266 V 25.617188 Z m 0,0"
       id="path32"
       inkscape:connector-curvature="0" />
    <path
       style="fill:#ffffff;fill-opacity:1;fill-rule:nonzero;stroke:none"
       d="m 106.97656,36.621094 c -3.6914,-1.449219 -5.0039,-2.847656 -5.0039,-5.359375 0,-1.605469 1.08984,-4.328125 5.16797,-4.328125 1.96875,0 3.51171,0.613281 4.24218,1.136718 l 0.12891,0.09766 0.76953,-1.703125 -0.0977,-0.06641 c -0.8789,-0.574219 -2.63671,-1.183594 -4.93359,-1.183594 -4.20312,0 -7.24219,2.664062 -7.24219,6.339844 0,3.167968 2.03125,5.347656 6.39844,6.875 3.48438,1.367187 4.84375,2.933593 4.84375,5.597656 0,3.011718 -2.25,4.953125 -5.74219,4.953125 -1.87109,0 -3.80078,-0.585938 -5.29687,-1.605469 l -0.12891,-0.09375 -0.765624,1.691406 0.08984,0.06641 c 1.320314,0.976563 3.812504,1.695313 5.921884,1.695313 5.45312,0 7.89453,-3.457031 7.89453,-6.882813 0,-3.902343 -2.5,-5.71875 -6.2461,-7.230468"
       id="path34"
       inkscape:connector-curvature="0" />
    <g
       clip-path="url(#clip2)"
       id="g38"
       style="clip-rule:nonzero;fill:#ffffff">
      <path
         style="fill:#ffffff;fill-opacity:1;fill-rule:nonzero;stroke:none"
         d="m 37.3125,0.00390625 c -0.09375,0 -0.140625,0 -0.140625,0 -12.847656,0 -24.527344,6.84765575 -31.101563,16.70703175 -4.324218,6.441406 -5.332031,12.375 -5.332031,12.375 C 0.125,32.476562 0,37.289062 2.71875,38.925781 c 4.179688,2.671875 10.285156,-0.789062 13.625,-4.269531 5.039062,-5.25 8.671875,-10.109375 13.941406,-15.597656 C 35.742188,13.359375 44.105469,7.980469 52.191406,10.25 41.570312,10.5625 33.484375,19.777344 27.296875,27.457031 21.023438,35.246094 9.6875,54.113281 0.015625,41.875 1.394531,56.226562 14.8125,62.9375 24.511719,51.464844 c 7.0625,-8.371094 10.347656,-20.144532 17.324219,-28.410156 5.1875,-6.144532 12.597656,-12.703126 24.792968,-8.5625 -6.828125,-8.675782 -20.3125,-10.976563 -31.164062,-6.640626 0,0 -7.039063,2.578126 -14.144532,10.605469 -5.296874,5.964844 -6.640624,7.203125 -8.585937,7.144531 l -0.273437,-0.04687 C 9.328125,24.511719 10.921875,20.140625 12.160156,18.253906 22.5,2.359375 41.929688,0.378906 54.554688,4.335938 46.824219,0.351562 39.476562,0.0195312 37.621094,0.00390625 Z M 49.742188,23.304688 c -7.0625,8.371093 -10.347657,20.144531 -17.324219,28.40625 -5.1875,6.148437 -12.597657,12.714843 -24.789063,8.566406 6.824219,8.671875 20.308594,10.984375 31.167969,6.640625 0,0 7.027344,-2.574219 14.140625,-10.605469 5.292969,-5.964844 6.636719,-7.199219 8.582031,-7.144531 l 0.277344,0.04687 c 3.128906,1.042968 1.539063,5.414062 0.296875,7.300781 -10.339844,15.894531 -29.769531,17.871094 -42.394531,13.917969 7.785156,4.003906 15.171875,4.324218 16.96875,4.335937 h 0.265625 c 0.09375,0 0.144531,-0.0039 0.144531,-0.0039 12.851563,0 24.535156,-6.851563 31.101563,-16.703125 4.332031,-6.449219 5.332031,-12.382812 5.332031,-12.382812 0.617187,-3.386719 0.742187,-8.207032 -1.972657,-9.835938 -4.1875,-2.664062 -10.285156,0.785156 -13.632812,4.265625 C 52.871094,45.367188 49.234375,50.21875 43.96875,55.714844 38.515625,61.40625 30.148438,66.785156 22.0625,64.519531 32.675781,64.207031 40.765625,54.992188 46.957031,47.3125 53.230469,39.523438 64.5625,20.65625 74.238281,32.890625 73.339844,23.585938 67.378906,17.488281 60.652344,17.488281 c -3.636719,0 -7.5,1.785157 -10.910156,5.816407"
         id="path36"
         inkscape:connector-curvature="0" />
    </g>
    <g
       clip-path="url(#clip3)"
       id="g44"
       style="clip-rule:nonzero;fill:#ffffff">
      <g
         clip-path="url(#clip4)"
         id="g42"
         style="clip-rule:nonzero;fill:#ffffff">
        <path
           style="fill:#ffffff;fill-opacity:1;fill-rule:nonzero;stroke:none"
           d="M 74.253906,74.769531 H 0 V 0.00390625 h 74.253906 z m 0,0"
           id="path40"
           inkscape:connector-curvature="0" />
      </g>
    </g>
  </g>
</svg>
