<?xml version="1.0" encoding="UTF-8" standalone="no"?>
<svg
   xmlns:dc="http://purl.org/dc/elements/1.1/"
   xmlns:cc="http://creativecommons.org/ns#"
   xmlns:rdf="http://www.w3.org/1999/02/22-rdf-syntax-ns#"
   xmlns:svg="http://www.w3.org/2000/svg"
   xmlns="http://www.w3.org/2000/svg"
   xmlns:sodipodi="http://sodipodi.sourceforge.net/DTD/sodipodi-0.dtd"
   xmlns:inkscape="http://www.inkscape.org/namespaces/inkscape"
   version="1.0"
   width="121.000000pt"
   height="121.000000pt"
   viewBox="0 0 121.000000 121.000000"
   preserveAspectRatio="xMidYMid meet"
   id="svg8"
   sodipodi:docname="snow_white.svg"
   inkscape:version="0.92.5 (2060ec1f9f, 2020-04-08)">
  <defs
     id="defs12" />
  <sodipodi:namedview
     pagecolor="#17a0c5"
     bordercolor="#666666"
     borderopacity="1"
     objecttolerance="10"
     gridtolerance="10"
     guidetolerance="10"
     inkscape:pageopacity="1"
     inkscape:pageshadow="2"
     inkscape:window-width="1315"
     inkscape:window-height="585"
     id="namedview10"
     showgrid="false"
     inkscape:zoom="1.4628099"
     inkscape:cx="80.666667"
     inkscape:cy="80.666667"
     inkscape:window-x="169"
     inkscape:window-y="131"
     inkscape:window-maximized="0"
     inkscape:current-layer="svg8" />
  <metadata
     id="metadata2">
Created by potrace 1.13, written by Peter Selinger 2001-2015
<rdf:RDF>
  <cc:Work
     rdf:about="">
    <dc:format>image/svg+xml</dc:format>
    <dc:type
       rdf:resource="http://purl.org/dc/dcmitype/StillImage" />
    <dc:title></dc:title>
  </cc:Work>
</rdf:RDF>
</metadata>
  <g
     transform="translate(0.000000,121.000000) scale(0.100000,-0.100000)"
     fill="#1f9fc2"
     stroke="none"
     id="g6"
     style="fill:#ffffff">
    <path
       d="M561 1187 c-6 -6 -11 -44 -11 -85 l0 -73 -39 22 c-38 21 -41 21 -65 5 -18 -12 -26 -25 -26 -46 0 -25 8 -36 47 -60 26 -16 55 -32 65 -36 14 -4 18 -16 18 -50 0 -24 -2 -44 -4 -44 -3 0 -21 9 -40 21 -19 11 -40 18 -46 14 -5 -3 -10 -26 -10 -51 l0 -45 -40 23 -39 23 -3 80 c-3 74 -5 80 -30 94 -24 14 -28 14 -47 -3 -15 -14 -21 -31 -21 -63 l0 -44 -66 37 c-65 37 -66 37 -101 20 -31 -15 -34 -20 -31 -53 3 -35 8 -40 65 -72 l63 -34 -40 -24 c-32 -19 -40 -30 -40 -53 0 -29 30 -60 58 -60 8 0 41 16 73 36 l59 36 36 -23 36 -22 -36 -22 c-52 -32 -52 -31 -3 -62 l45 -28 -38 -19 -39 -19 -63 37 c-61 37 -63 37 -95 22 -28 -13 -33 -21 -33 -51 0 -32 4 -38 41 -54 l41 -19 -48 -28 c-70 -39 -84 -54 -84 -85 0 -31 31 -59 65 -59 12 0 47 16 79 35 32 19 59 35 60 35 1 0 0 -19 -2 -43 -3 -33 1 -47 18 -62 20 -18 24 -18 48 -4 25 13 27 21 32 92 5 74 6 78 38 97 18 11 35 20 37 20 3 0 5 -19 5 -43 0 -24 3 -47 6 -50 4 -3 26 5 50 19 l44 26 0 -45 c0 -35 -4 -47 -18 -51 -10 -4 -39 -20 -65 -36 -39 -24 -47 -35 -47 -60 0 -21 8 -34 26 -46 24 -16 27 -16 65 5 l39 22 0 -76 c0 -72 1 -76 25 -85 27 -10 52 -9 73 3 8 5 12 34 12 83 l0 75 40 -22 c33 -19 44 -21 65 -11 20 9 25 19 25 47 0 31 -5 39 -47 65 -26 16 -55 32 -65 36 -14 4 -18 16 -18 50 0 24 2 44 4 44 3 0 21 -9 40 -21 44 -26 56 -19 56 32 l0 40 30 -16 c17 -9 34 -14 39 -11 4 3 9 -32 10 -77 1 -75 4 -84 27 -105 l26 -23 24 22 c17 16 24 33 24 61 l0 40 57 -31 c64 -35 89 -38 121 -15 17 12 22 24 20 47 -2 26 -13 39 -62 71 l-59 39 36 19 c46 23 50 62 12 98 l-24 23 -70 -37 -69 -36 -40 18 -40 18 39 22 c21 13 39 27 39 31 0 5 -16 19 -35 31 -40 25 -36 39 14 60 25 10 35 7 91 -26 59 -35 65 -36 89 -23 20 11 26 23 26 49 0 29 -6 37 -37 55 l-37 21 64 37 c60 35 65 40 65 72 0 30 -5 38 -34 51 -33 16 -35 16 -100 -19 l-66 -35 0 43 c0 30 -6 47 -21 61 -19 17 -23 17 -47 3 -25 -14 -27 -19 -30 -97 l-3 -82 -39 -20 -40 -20 0 44 c0 25 -4 48 -10 51 -5 3 -27 -4 -50 -15 l-40 -20 0 39 c0 39 1 41 73 78 68 36 72 40 72 73 0 27 -6 37 -28 50 -25 14 -30 13 -67 -7 -21 -13 -41 -23 -44 -23 -4 0 -6 33 -6 74 0 49 -4 78 -12 83 -19 12 -75 12 -87 0z m105 -550 c15 -31 15 -36 0 -65 -14 -28 -22 -32 -56 -32 -31 0 -43 5 -59 29 -21 29 -21 31 -4 65 15 33 20 36 60 36 39 0 45 -3 59 -33z"
       id="path4"
       style="fill:#ffffff" />
  </g>
</svg>
